<?xml version="1.0" standalone="no"?>
<!DOCTYPE svg PUBLIC "-//W3C//DTD SVG 1.1//EN" "http://www.w3.org/Graphics/SVG/1.1/DTD/svg11.dtd">
<svg xmlns="http://www.w3.org/2000/svg" width="38" height="45" viewBox="0 0 38 45" fill="none">
<path d="M4.48888 25.6021C4.4517 26.0333 4.46168 26.4673 4.51864 26.8964H6.09184V27.1196C6.09184 28.9718 6.10052 30.8314 6.11788 32.6985V35.2053V35.4173H7.51258V26.8853H9.12298V25.5835C8.818 25.5314 4.63388 25.55 4.48888 25.6021ZM4.98355 14.7231C4.96124 15.1307 4.96124 15.5392 4.98355 15.9467H6.47125V23.7572H7.76185V15.9467H9.24955V14.7231H4.98355ZM11.1651 22.4704V19.8222C11.9089 19.7925 12.6528 19.8222 13.3966 19.7776V18.5874H11.1651C11.122 17.6989 11.1282 16.8086 11.1837 15.9207H12.4296H13.7091V15.2959C13.7288 15.0978 13.7251 14.898 13.6979 14.7008C12.9764 14.6524 10.0939 14.7008 9.89675 14.7454V23.7647H13.7314V22.4704H11.1651ZM14.3041 30.4296V28.7597V27.6811C14.299 27.2479 14.1679 26.8256 13.9269 26.4656C13.6858 26.1057 13.3452 25.8237 12.9466 25.6541C12.5566 25.4775 12.1258 25.4107 11.7006 25.4607C11.2289 25.4971 10.7802 25.6791 10.4164 25.9816C10.0526 26.2841 9.79174 26.6921 9.66986 27.1492C9.61163 27.3929 9.58168 27.6425 9.5806 27.8931V29.4106V32.1368V33.2823C9.62189 33.8353 9.85612 34.3561 10.2424 34.7539C10.6287 35.1518 11.1424 35.4012 11.6939 35.4588C12.2454 35.5164 12.7995 35.3784 13.2596 35.069C13.7197 34.7596 14.0565 34.2983 14.2112 33.7658C14.2769 33.5107 14.3094 33.2482 14.3079 32.9848V30.411L14.3041 30.4296ZM12.8722 33.1038C12.8789 33.2608 12.846 33.4169 12.7766 33.5578C12.7071 33.6987 12.6034 33.8199 12.4749 33.9102C12.3464 34.0006 12.1973 34.0572 12.0412 34.0749C11.8851 34.0925 11.7271 34.0707 11.5816 34.0113C11.3982 33.9519 11.2394 33.8337 11.1299 33.6751C11.0203 33.5164 10.966 33.3261 10.9754 33.1336V31.8578V30.4743V27.9675C10.9727 27.8203 10.9851 27.6732 11.0126 27.5286C11.0633 27.3225 11.186 27.1414 11.3585 27.018C11.5311 26.8945 11.7422 26.8368 11.9535 26.8554C12.1643 26.8538 12.3685 26.9281 12.529 27.0647C12.6895 27.2013 12.7954 27.391 12.8276 27.5993C12.8499 27.737 12.8611 27.8763 12.8611 28.0158V32.9848V33.1187L12.8722 33.1038ZM18.4511 21.1688C18.0085 21.1874 17.5957 21.1688 17.1754 21.1688V21.5407C17.1685 21.7154 17.1423 21.8888 17.0973 22.0577C17.0395 22.2169 16.9291 22.3515 16.7844 22.4394C16.6397 22.5274 16.4693 22.5633 16.3014 22.5412C16.1419 22.5443 15.9863 22.4913 15.8619 22.3914C15.7375 22.2914 15.6521 22.151 15.6208 21.9945C15.5868 21.8519 15.5693 21.7059 15.5687 21.5593V19.3612V17.271C15.5674 17.0299 15.581 16.7889 15.6096 16.5495C15.6159 16.4317 15.6538 16.3178 15.7192 16.2196C15.7847 16.1215 15.8752 16.0427 15.9815 15.9916C16.0756 15.945 16.178 15.9177 16.2828 15.9112C16.3875 15.9048 16.4925 15.9193 16.5916 15.9539C16.6907 15.9886 16.7818 16.0426 16.8597 16.113C16.9376 16.1833 17.0007 16.2685 17.0453 16.3635C17.1315 16.5508 17.1711 16.7563 17.1606 16.9623V17.271H18.4474V16.6834C18.4504 16.4108 18.3988 16.1404 18.2957 15.8881C18.1926 15.6359 18.04 15.4068 17.8469 15.2144C17.6538 15.022 17.4242 14.8702 17.1715 14.768C16.9189 14.6658 16.6483 14.6152 16.3758 14.6191C15.9726 14.5921 15.5708 14.6896 15.2249 14.8985C14.8789 15.1074 14.6055 15.4176 14.4418 15.787C14.3034 16.0887 14.2372 16.4185 14.2484 16.7503V18.4017V21.7007C14.2484 21.825 14.2558 21.9492 14.2707 22.0726C14.308 22.5683 14.5392 23.0293 14.9141 23.3558C15.2408 23.6246 15.6389 23.7922 16.0596 23.838C16.4802 23.8837 16.9051 23.8056 17.282 23.6132C17.6588 23.4208 17.9713 23.1226 18.181 22.7551C18.3907 22.3875 18.4884 21.9668 18.4623 21.5445C18.4772 21.4254 18.466 21.3027 18.4623 21.1688H18.4511ZM18.0792 25.5315H16.9374C16.8184 25.8328 14.7579 35.2203 14.7728 35.3839H16.1452C16.2865 34.6735 16.4241 33.9743 16.5617 33.2676H18.4921C18.6334 33.9694 18.7747 34.6673 18.9161 35.3616H20.3331L18.0792 25.5315ZM16.7961 31.9176C17.0118 30.7423 17.2387 29.5744 17.4618 28.4103H17.5102L18.2057 31.9138L16.7961 31.9176ZM22.1556 14.6826V18.5432H20.5674C20.5674 17.2526 20.5451 15.9732 20.5339 14.6937H19.2768V23.7279H20.5711V19.7111H22.1742V23.7204H23.4499V14.6826H22.1556ZM23.9036 29.8906L23.8441 29.8646L22.7283 29.4257C22.5981 29.3737 22.4754 29.3142 22.3564 29.2509C22.24 29.1935 22.1407 29.1067 22.0683 28.999C21.9959 28.8914 21.9529 28.7667 21.9436 28.6372C21.9194 28.3166 21.9194 27.9946 21.9436 27.6739C21.9504 27.5334 21.9903 27.3965 22.0601 27.2743C22.1299 27.1521 22.2276 27.0482 22.3452 26.971C22.4668 26.895 22.6036 26.8468 22.7459 26.8297C22.8882 26.8127 23.0325 26.8272 23.1685 26.8723C23.3046 26.9174 23.429 26.992 23.5329 27.0907C23.6368 27.1894 23.7177 27.3098 23.7697 27.4434C23.8221 27.633 23.8557 27.8273 23.8701 28.0236V28.3174H25.2686C25.3058 27.9531 25.2958 27.5856 25.2388 27.2239C25.1294 26.757 24.8784 26.3354 24.5203 26.0165C24.1621 25.6976 23.7143 25.4971 23.2379 25.4424C22.6756 25.3381 22.0947 25.4504 21.6118 25.7567C21.1289 26.063 20.7797 26.5407 20.6344 27.0937C20.4592 27.7178 20.4375 28.3749 20.5711 29.0092C20.6301 29.3329 20.7669 29.6375 20.9697 29.8966C21.1725 30.1558 21.4352 30.3618 21.7353 30.4969C21.8394 30.549 21.9473 30.5973 22.0551 30.6419L23.011 31.0139C23.1459 31.0695 23.2775 31.1329 23.4052 31.2035C23.511 31.2575 23.6023 31.3359 23.6715 31.4323C23.7407 31.5287 23.7859 31.6403 23.8032 31.7577C23.8831 32.2641 23.8831 32.7799 23.8032 33.2863C23.7906 33.4688 23.7111 33.6403 23.5801 33.7679C23.449 33.8955 23.2756 33.9703 23.0928 33.9781C22.9433 34.0115 22.7881 34.0099 22.6392 33.9735C22.4904 33.9371 22.352 33.8669 22.2347 33.7683C22.1174 33.6697 22.0244 33.5454 21.963 33.4051C21.9015 33.2647 21.8732 33.1121 21.8803 32.9591V32.5871H20.467V33.1487C20.4732 33.6098 20.6185 34.0582 20.884 34.4352C21.1495 34.8122 21.5227 35.1001 21.9547 35.2613C22.5731 35.488 23.2518 35.488 23.8701 35.2613C24.309 35.1181 24.6772 34.8137 24.9004 34.4096C25.049 34.1483 25.1533 33.8643 25.2091 33.569C25.3268 32.8955 25.3368 32.2075 25.2388 31.5308C25.2034 31.1555 25.0593 30.7987 24.8241 30.504C24.5889 30.2094 24.2729 29.9898 23.9148 29.872L23.9036 29.8906ZM26.879 18.2976C26.8793 18.1957 26.8585 18.0949 26.8182 18.0013C26.7778 17.9078 26.7186 17.8235 26.6444 17.7538C26.5701 17.684 26.4823 17.6303 26.3864 17.5959C26.2905 17.5615 26.1885 17.5471 26.0868 17.5538C25.9866 17.5537 25.8874 17.5739 25.7951 17.6131C25.7029 17.6523 25.6195 17.7098 25.55 17.782C25.4806 17.8543 25.4264 17.9399 25.3908 18.0336C25.3552 18.1273 25.339 18.2272 25.343 18.3274V19.1605V20.0606C25.3429 20.1615 25.3633 20.2613 25.4029 20.3541C25.4426 20.4468 25.5008 20.5306 25.5738 20.6001C25.6469 20.6697 25.7333 20.7237 25.8279 20.7588C25.9225 20.794 26.0233 20.8095 26.124 20.8044C26.3213 20.8044 26.5105 20.7261 26.65 20.5866C26.7895 20.4471 26.8679 20.2578 26.8679 20.0606C26.8865 19.4692 26.8865 18.8853 26.8753 18.3013L26.879 18.2976ZM26.4253 19.9713C26.4307 20.0207 26.4307 20.0706 26.4253 20.1201C26.4068 20.192 26.3624 20.2545 26.3006 20.2957C26.2389 20.3369 26.164 20.3538 26.0906 20.3432C26.0201 20.3386 25.954 20.3078 25.9051 20.2569C25.8562 20.2059 25.8282 20.1386 25.8265 20.068C25.8247 20.0532 25.8247 20.0382 25.8265 20.0234V19.1679V18.3348C25.8265 18.1265 25.9195 18.0187 26.098 17.9964C26.1709 17.9821 26.2466 17.9971 26.3085 18.0382C26.3705 18.0792 26.4138 18.143 26.429 18.2158C26.4437 18.264 26.4512 18.3142 26.4513 18.3646L26.4253 19.9713ZM28.8428 17.5575H28.4002V19.3576H28.3519C28.1362 18.7551 27.9192 18.1551 27.701 17.5575H27.2844V20.7338H27.727V18.9708H27.768L28.43 20.7486H28.8577V17.5649L28.8428 17.5575ZM25.6554 25.513V26.8297H27.2547V27.0677V31.5978V35.12V35.3431H28.6606V32.5016V29.6638C28.6208 28.7154 28.6332 27.7655 28.6978 26.8185H30.2822V25.5019H25.6294L25.6554 25.513ZM25.6554 25.513V26.8297H27.2547V27.0677V31.5978V35.12V35.3431H28.6606V32.5016V29.6638C28.6208 28.7154 28.6332 27.7655 28.6978 26.8185H30.2822V25.5019H25.6294L25.6554 25.513ZM28.8428 17.5575H28.4002V19.3576H28.3519L27.701 17.5575H27.2807V20.7338H27.7233V18.9708H27.768L28.4263 20.7486H28.8577C28.8503 19.6663 28.8614 18.61 28.8428 17.5575ZM26.8753 18.3013C26.8755 18.1995 26.8548 18.0986 26.8145 18.0051C26.7741 17.9115 26.7149 17.8272 26.6407 17.7575C26.5664 17.6878 26.4786 17.634 26.3827 17.5996C26.2867 17.5652 26.1848 17.5509 26.0831 17.5575C25.9829 17.5574 25.8837 17.5776 25.7914 17.6168C25.6992 17.656 25.6158 17.7135 25.5463 17.7858C25.4769 17.858 25.4227 17.9436 25.3871 18.0373C25.3515 18.131 25.3353 18.2309 25.3393 18.3311V19.1642V20.0643C25.3391 20.1652 25.3595 20.265 25.3992 20.3578C25.4389 20.4506 25.497 20.5343 25.5701 20.6039C25.6432 20.6735 25.7296 20.7274 25.8242 20.7626C25.9188 20.7977 26.0195 20.8132 26.1203 20.8081C26.3176 20.8081 26.5068 20.7298 26.6463 20.5903C26.7858 20.4508 26.8642 20.2616 26.8642 20.0643C26.8865 19.4692 26.8865 18.8853 26.8753 18.3013ZM26.4216 19.975C26.427 20.0245 26.427 20.0744 26.4216 20.1238C26.4031 20.1957 26.3587 20.2582 26.2969 20.2994C26.2351 20.3406 26.1603 20.3575 26.0868 20.3469C26.0164 20.3423 25.9503 20.3115 25.9014 20.2606C25.8525 20.2097 25.8245 20.1423 25.8228 20.0717C25.8209 20.0569 25.8209 20.0419 25.8228 20.0271V19.1717V18.3385C25.8228 18.1303 25.9158 18.0224 26.0943 18.0001C26.1672 17.9858 26.2429 18.0008 26.3048 18.0419C26.3668 18.0829 26.4101 18.1468 26.4253 18.2195C26.4399 18.2678 26.4475 18.3179 26.4476 18.3683L26.4216 19.975ZM23.9036 29.8944L23.8441 29.8683L22.7283 29.4294C22.5981 29.3774 22.4754 29.3179 22.3564 29.2546C22.24 29.1972 22.1407 29.1104 22.0683 29.0027C21.9959 28.8951 21.9529 28.7704 21.9436 28.641C21.9194 28.3203 21.9194 27.9983 21.9436 27.6777C21.9504 27.5371 21.9903 27.4002 22.0601 27.278C22.1299 27.1559 22.2276 27.0519 22.3452 26.9747C22.4668 26.8987 22.6036 26.8505 22.7459 26.8335C22.8882 26.8164 23.0325 26.8309 23.1685 26.8761C23.3046 26.9212 23.429 26.9957 23.5329 27.0944C23.6368 27.1931 23.7177 27.3135 23.7697 27.4471C23.8221 27.6367 23.8557 27.8311 23.8701 28.0273V28.3211H25.2686C25.3058 27.9569 25.2958 27.5893 25.2388 27.2276C25.1294 26.7608 24.8784 26.3391 24.5203 26.0202C24.1621 25.7014 23.7143 25.5008 23.2379 25.4461C22.6756 25.3419 22.0947 25.4542 21.6118 25.7605C21.1289 26.0668 20.7797 26.5444 20.6344 27.0975C20.4592 27.7215 20.4375 28.3786 20.5711 29.0129C20.6301 29.3366 20.7669 29.6412 20.9697 29.9003C21.1725 30.1595 21.4352 30.3655 21.7353 30.5006C21.8394 30.5527 21.9473 30.601 22.0551 30.6457L23.011 31.0176C23.1459 31.0733 23.2775 31.1366 23.4052 31.2073C23.511 31.2612 23.6023 31.3396 23.6715 31.436C23.7407 31.5324 23.7859 31.644 23.8032 31.7614C23.8832 32.2691 23.8832 32.7861 23.8032 33.2938C23.7897 33.4756 23.7099 33.6461 23.5789 33.773C23.448 33.8998 23.275 33.9742 23.0928 33.9819C22.943 34.0153 22.7874 34.0136 22.6383 33.977C22.4892 33.9404 22.3505 33.8699 22.2331 33.7709C22.1158 33.6719 22.0229 33.5471 21.9617 33.4063C21.9005 33.2655 21.8726 33.1124 21.8803 32.9591V32.5871H20.467V33.1487C20.4732 33.6098 20.6185 34.0582 20.884 34.4352C21.1495 34.8122 21.5227 35.1001 21.9547 35.2613C22.5731 35.488 23.2518 35.488 23.8701 35.2613C24.309 35.1181 24.6772 34.8137 24.9004 34.4096C25.049 34.1483 25.1533 33.8643 25.2091 33.569C25.3268 32.8955 25.3368 32.2075 25.2388 31.5308C25.2034 31.1555 25.0593 30.7987 24.8241 30.504C24.5889 30.2094 24.2729 29.9898 23.9148 29.872L23.9036 29.8944ZM22.1556 14.6864V18.5432H20.5674C20.5674 17.2526 20.5451 15.9732 20.5339 14.6937H19.2768V23.7279H20.5711V19.7111H22.1742V23.7204H23.4499V14.6826L22.1556 14.6864ZM18.109 25.5314L16.9374 25.5315C16.8184 25.8328 14.7579 35.2203 14.7728 35.3839H16.1452C16.2865 34.6735 16.4241 33.9743 16.5617 33.2676H18.4921C18.6334 33.9694 18.7747 34.6673 18.9161 35.3616H20.3331L18.109 25.5314ZM16.8258 31.9175C17.0415 30.7422 17.2684 29.5743 17.4916 28.4102H17.5399L18.2354 31.9137L16.8258 31.9175ZM18.4623 21.1688C18.0197 21.1874 17.6069 21.1685 17.1866 21.1685V21.5404C17.1796 21.7151 17.1535 21.8885 17.1085 22.0574C17.0503 22.2187 16.9382 22.3549 16.7911 22.443C16.644 22.5311 16.471 22.566 16.3014 22.5412C16.1419 22.5443 15.9863 22.4913 15.8619 22.3914C15.7375 22.2914 15.6521 22.151 15.6208 21.9945C15.5868 21.8519 15.5693 21.7059 15.5687 21.5593V19.3612V17.271C15.5674 17.0299 15.581 16.7889 15.6096 16.5495C15.6159 16.4317 15.6538 16.3178 15.7192 16.2196C15.7847 16.1215 15.8752 16.0427 15.9815 15.9916C16.0756 15.945 16.178 15.9177 16.2828 15.9112C16.3875 15.9048 16.4925 15.9193 16.5916 15.9539C16.6907 15.9886 16.7818 16.0426 16.8597 16.113C16.9376 16.1833 17.0007 16.2685 17.0453 16.3635C17.1315 16.5508 17.1711 16.7563 17.1606 16.9623V17.271H18.4474V16.6834C18.4504 16.4108 18.3988 16.1404 18.2957 15.8881C18.1926 15.6359 18.04 15.4068 17.8469 15.2144C17.6538 15.022 17.4242 14.8702 17.1715 14.768C16.9189 14.6658 16.6483 14.6152 16.3758 14.6191C15.9726 14.5921 15.5708 14.6896 15.2249 14.8985C14.8789 15.1074 14.6055 15.4176 14.4418 15.787C14.3034 16.0887 14.2372 16.4185 14.2484 16.7503V18.4017V21.7007C14.2484 21.825 14.2558 21.9492 14.2707 22.0726C14.308 22.5683 14.5392 23.0293 14.9141 23.3558C15.2408 23.6246 15.6389 23.7922 16.0596 23.838C16.4802 23.8837 16.9051 23.8056 17.282 23.6132C17.6588 23.4208 17.9713 23.1226 18.181 22.7551C18.3907 22.3875 18.4884 21.9668 18.4623 21.5445V21.1722V21.1688ZM14.3079 30.4295H14.2855V28.7596V27.681C14.2804 27.2478 14.1493 26.8255 13.9083 26.4655C13.6672 26.1056 13.3266 25.8236 12.928 25.654C12.5381 25.4771 12.1072 25.4102 11.682 25.4606C11.2107 25.4967 10.7622 25.6786 10.399 25.9812C10.0357 26.2838 9.77565 26.692 9.65498 27.1491C9.59553 27.3927 9.56433 27.6423 9.562 27.893V29.4105V32.1367C9.562 32.5086 9.562 32.903 9.5806 33.2823C9.59468 33.7319 9.74427 34.1665 10.0097 34.5296C10.2753 34.8926 10.6443 35.167 11.0683 35.3167C11.3751 35.4314 11.7021 35.4819 12.0292 35.4652C12.3563 35.4485 12.6765 35.3649 12.97 35.2195C13.2635 35.0742 13.5241 34.8702 13.7356 34.6201C13.9472 34.3701 14.1052 34.0793 14.1999 33.7657C14.2656 33.5106 14.2982 33.2481 14.2966 32.9847C14.3152 32.1441 14.3079 31.2887 14.3079 30.4295ZM12.8722 33.1038C12.8789 33.2608 12.846 33.4169 12.7766 33.5578C12.7071 33.6987 12.6034 33.8199 12.4749 33.9102C12.3464 34.0006 12.1973 34.0572 12.0412 34.0749C11.8851 34.0925 11.7271 34.0707 11.5816 34.0113C11.3982 33.9519 11.2394 33.8337 11.1299 33.6751C11.0203 33.5164 10.966 33.3261 10.9754 33.1336V31.8578V30.4743V27.9675C10.972 27.8201 10.9858 27.6727 11.0163 27.5285C11.0782 27.3299 11.2034 27.1571 11.3727 27.0363C11.5421 26.9156 11.7464 26.8537 11.9543 26.86C12.1622 26.8664 12.3623 26.9406 12.524 27.0714C12.6858 27.2022 12.8002 27.3823 12.8499 27.5843C12.8741 27.7218 12.8853 27.8612 12.8834 28.0008V32.9698L12.8722 33.1038ZM11.1651 22.4704V19.8222C11.9089 19.7925 12.6528 19.8222 13.3966 19.7776V18.5874H11.1651C11.122 17.6989 11.1282 16.8086 11.1837 15.9207H12.4296H13.7091V15.2959C13.7288 15.0978 13.7251 14.898 13.6979 14.7008C12.9764 14.6524 10.0939 14.7008 9.89675 14.7454V23.7647H13.7314V22.4704H11.1651ZM4.98355 14.7231C4.96124 15.1307 4.96124 15.5392 4.98355 15.9467H6.47125V23.7572H7.76185V15.9467H9.24955V14.7231H4.98355ZM4.48888 25.6021C4.4517 26.0333 4.46168 26.4673 4.51864 26.8964H6.09184V27.1196C6.09184 28.9718 6.10052 30.8314 6.11788 32.6985V35.2053V35.4173H7.51258V26.8853H9.12298V25.5835C8.818 25.5314 4.63388 25.55 4.48888 25.6021ZM4.48888 25.6021C4.4517 26.0333 4.46168 26.4673 4.51864 26.8964H6.09184V27.1196C6.09184 28.9718 6.10052 30.8314 6.11788 32.6985V35.2053V35.4173H7.51258V26.8853H9.12298V25.5835C8.818 25.5314 4.63388 25.55 4.48888 25.6021ZM4.98355 14.7231C4.96124 15.1307 4.96124 15.5392 4.98355 15.9467H6.47125V23.7572H7.76185V15.9467H9.24955V14.7231H4.98355ZM11.1651 22.4704V19.8222C11.9089 19.7925 12.6528 19.8222 13.3966 19.7776V18.5874H11.1651C11.122 17.6989 11.1282 16.8086 11.1837 15.9207H12.4296H13.7091V15.2959C13.7288 15.0978 13.7251 14.898 13.6979 14.7008C12.9764 14.6524 10.0939 14.7008 9.89675 14.7454V23.7647H13.7314V22.4704H11.1651ZM14.3041 30.4296V28.7597V27.6811C14.299 27.2479 14.1679 26.8256 13.9269 26.4656C13.6858 26.1057 13.3452 25.8237 12.9466 25.6541C12.5566 25.4775 12.1258 25.4107 11.7006 25.4607C11.2289 25.4971 10.7802 25.6791 10.4164 25.9816C10.0526 26.2841 9.79174 26.6921 9.66986 27.1492C9.61163 27.3929 9.58168 27.6425 9.5806 27.8931V29.4106V32.1368V33.2823C9.62189 33.8353 9.85612 34.3561 10.2424 34.7539C10.6287 35.1518 11.1424 35.4012 11.6939 35.4588C12.2454 35.5164 12.7995 35.3784 13.2596 35.069C13.7197 34.7596 14.0565 34.2983 14.2112 33.7658C14.2769 33.5107 14.3094 33.2482 14.3079 32.9848V30.411L14.3041 30.4296ZM12.8722 33.1038C12.8789 33.2608 12.846 33.4169 12.7766 33.5578C12.7071 33.6987 12.6034 33.8199 12.4749 33.9102C12.3464 34.0006 12.1973 34.0572 12.0412 34.0749C11.8851 34.0925 11.7271 34.0707 11.5816 34.0113C11.3982 33.9519 11.2394 33.8337 11.1299 33.6751C11.0203 33.5164 10.966 33.3261 10.9754 33.1336V31.8578V30.4743V27.9675C10.9727 27.8203 10.9851 27.6732 11.0126 27.5286C11.0633 27.3225 11.186 27.1414 11.3585 27.018C11.5311 26.8945 11.7422 26.8368 11.9535 26.8554C12.1643 26.8538 12.3685 26.9281 12.529 27.0647C12.6895 27.2013 12.7954 27.391 12.8276 27.5993C12.8499 27.737 12.8611 27.8763 12.8611 28.0158V32.9848V33.1187L12.8722 33.1038ZM18.4511 21.1688C18.0085 21.1874 17.5957 21.1688 17.1754 21.1688V21.5407C17.1685 21.7154 17.1423 21.8888 17.0973 22.0577C17.0395 22.2169 16.9291 22.3515 16.7844 22.4394C16.6397 22.5274 16.4693 22.5633 16.3014 22.5412C16.1419 22.5443 15.9863 22.4913 15.8619 22.3914C15.7375 22.2914 15.6521 22.151 15.6208 21.9945C15.5868 21.8519 15.5693 21.7059 15.5687 21.5593V19.3612V17.271C15.5674 17.0299 15.581 16.7889 15.6096 16.5495C15.6159 16.4317 15.6538 16.3178 15.7192 16.2196C15.7847 16.1215 15.8752 16.0427 15.9815 15.9916C16.0756 15.945 16.178 15.9177 16.2828 15.9112C16.3875 15.9048 16.4925 15.9193 16.5916 15.9539C16.6907 15.9886 16.7818 16.0426 16.8597 16.113C16.9376 16.1833 17.0007 16.2685 17.0453 16.3635C17.1315 16.5508 17.1711 16.7563 17.1606 16.9623V17.271H18.4474V16.6834C18.4504 16.4108 18.3988 16.1404 18.2957 15.8881C18.1926 15.6359 18.04 15.4068 17.8469 15.2144C17.6538 15.022 17.4242 14.8702 17.1715 14.768C16.9189 14.6658 16.6483 14.6152 16.3758 14.6191C15.9726 14.5921 15.5708 14.6896 15.2249 14.8985C14.8789 15.1074 14.6055 15.4176 14.4418 15.787C14.3034 16.0887 14.2372 16.4185 14.2484 16.7503V18.4017V21.7007C14.2484 21.825 14.2558 21.9492 14.2707 22.0726C14.308 22.5683 14.5392 23.0293 14.9141 23.3558C15.2408 23.6246 15.6389 23.7922 16.0596 23.838C16.4802 23.8837 16.9051 23.8056 17.282 23.6132C17.6588 23.4208 17.9713 23.1226 18.181 22.7551C18.3907 22.3875 18.4884 21.9668 18.4623 21.5445C18.4772 21.4254 18.466 21.3027 18.4623 21.1688H18.4511ZM18.0792 25.5315H16.9374C16.8184 25.8328 14.7579 35.2203 14.7728 35.3839H16.1452C16.2865 34.6735 16.4241 33.9743 16.5617 33.2676H18.4921C18.6334 33.9694 18.7747 34.6673 18.9161 35.3616H20.3331L18.0792 25.5315ZM16.7961 31.9176C17.0118 30.7423 17.2387 29.5744 17.4618 28.4103H17.5102L18.2057 31.9138L16.7961 31.9176ZM22.1556 14.6826V18.5432H20.5674C20.5674 17.2526 20.5451 15.9732 20.5339 14.6937H19.2768V23.7279H20.5711V19.7111H22.1742V23.7204H23.4499V14.6826H22.1556ZM23.9036 29.8906L23.8441 29.8646L22.7283 29.4257C22.5981 29.3737 22.4754 29.3142 22.3564 29.2509C22.24 29.1935 22.1407 29.1067 22.0683 28.999C21.9959 28.8914 21.9529 28.7667 21.9436 28.6372C21.9194 28.3166 21.9194 27.9946 21.9436 27.6739C21.9504 27.5334 21.9903 27.3965 22.0601 27.2743C22.1299 27.1521 22.2276 27.0482 22.3452 26.971C22.4668 26.895 22.6036 26.8468 22.7459 26.8297C22.8882 26.8127 23.0325 26.8272 23.1685 26.8723C23.3046 26.9174 23.429 26.992 23.5329 27.0907C23.6368 27.1894 23.7177 27.3098 23.7697 27.4434C23.8221 27.633 23.8557 27.8273 23.8701 28.0236V28.3174H25.2686C25.3058 27.9531 25.2958 27.5856 25.2388 27.2239C25.1294 26.757 24.8784 26.3354 24.5203 26.0165C24.1621 25.6976 23.7143 25.4971 23.2379 25.4424C22.6756 25.3381 22.0947 25.4504 21.6118 25.7567C21.1289 26.063 20.7797 26.5407 20.6344 27.0937C20.4592 27.7178 20.4375 28.3749 20.5711 29.0092C20.6301 29.3329 20.7669 29.6375 20.9697 29.8966C21.1725 30.1558 21.4352 30.3618 21.7353 30.4969C21.8394 30.549 21.9473 30.5973 22.0551 30.6419L23.011 31.0139C23.1459 31.0695 23.2775 31.1329 23.4052 31.2035C23.511 31.2575 23.6023 31.3359 23.6715 31.4323C23.7407 31.5287 23.7859 31.6403 23.8032 31.7577C23.8831 32.2641 23.8831 32.7799 23.8032 33.2863C23.7906 33.4688 23.7111 33.6403 23.5801 33.7679C23.449 33.8955 23.2756 33.9703 23.0928 33.9781C22.9433 34.0115 22.7881 34.0099 22.6392 33.9735C22.4904 33.9371 22.352 33.8669 22.2347 33.7683C22.1174 33.6697 22.0244 33.5454 21.963 33.4051C21.9015 33.2647 21.8732 33.1121 21.8803 32.9591V32.5871H20.467V33.1487C20.4732 33.6098 20.6185 34.0582 20.884 34.4352C21.1495 34.8122 21.5227 35.1001 21.9547 35.2613C22.5731 35.488 23.2518 35.488 23.8701 35.2613C24.309 35.1181 24.6772 34.8137 24.9004 34.4096C25.049 34.1483 25.1533 33.8643 25.2091 33.569C25.3268 32.8955 25.3368 32.2075 25.2388 31.5308C25.2034 31.1555 25.0593 30.7987 24.8241 30.504C24.5889 30.2094 24.2729 29.9898 23.9148 29.872L23.9036 29.8906ZM26.879 18.2976C26.8793 18.1957 26.8585 18.0949 26.8182 18.0013C26.7778 17.9078 26.7186 17.8235 26.6444 17.7538C26.5701 17.684 26.4823 17.6303 26.3864 17.5959C26.2905 17.5615 26.1885 17.5471 26.0868 17.5538C25.9866 17.5537 25.8874 17.5739 25.7951 17.6131C25.7029 17.6523 25.6195 17.7098 25.55 17.782C25.4806 17.8543 25.4264 17.9399 25.3908 18.0336C25.3552 18.1273 25.339 18.2272 25.343 18.3274V19.1605V20.0606C25.3429 20.1615 25.3633 20.2613 25.4029 20.3541C25.4426 20.4468 25.5008 20.5306 25.5738 20.6001C25.6469 20.6697 25.7333 20.7237 25.8279 20.7588C25.9225 20.794 26.0233 20.8095 26.124 20.8044C26.3213 20.8044 26.5105 20.7261 26.65 20.5866C26.7895 20.4471 26.8679 20.2578 26.8679 20.0606C26.8865 19.4692 26.8865 18.8853 26.8753 18.3013L26.879 18.2976ZM26.4253 19.9713C26.4307 20.0207 26.4307 20.0706 26.4253 20.1201C26.4068 20.192 26.3624 20.2545 26.3006 20.2957C26.2389 20.3369 26.164 20.3538 26.0906 20.3432C26.0201 20.3386 25.954 20.3078 25.9051 20.2569C25.8562 20.2059 25.8282 20.1386 25.8265 20.068C25.8247 20.0532 25.8247 20.0382 25.8265 20.0234V19.1679V18.3348C25.8265 18.1265 25.9195 18.0187 26.098 17.9964C26.1709 17.9821 26.2466 17.9971 26.3085 18.0382C26.3705 18.0792 26.4138 18.143 26.429 18.2158C26.4437 18.264 26.4512 18.3142 26.4513 18.3646L26.4253 19.9713ZM28.8428 17.5575H28.4002V19.3576H28.3519C28.1362 18.7551 27.9192 18.1551 27.701 17.5575H27.2844V20.7338H27.727V18.9708H27.768L28.43 20.7486H28.8577V17.5649L28.8428 17.5575ZM25.6554 25.513V26.8297H27.2547V27.0677V31.5978V35.12V35.3431H28.6606V32.5016V29.6638C28.6208 28.7154 28.6332 27.7655 28.6978 26.8185H30.2822V25.5019H25.6294L25.6554 25.513ZM25.6554 25.513V26.8297H27.2547V27.0677V31.5978V35.12V35.3431H28.6606V32.5016V29.6638C28.6208 28.7154 28.6332 27.7655 28.6978 26.8185H30.2822V25.5019H25.6294L25.6554 25.513ZM27.727 18.9708H27.768L28.43 20.7527H28.8577V17.5649L28.4151 17.5652V19.3654H28.3668C28.151 18.7628 27.9316 18.164 27.7159 17.5652H27.2956V20.7415H27.7419L27.727 18.9708ZM26.8753 20.0571V18.2979C26.8755 18.196 26.8548 18.0952 26.8145 18.0016C26.7741 17.9081 26.7149 17.8238 26.6407 17.7541C26.5664 17.6843 26.4786 17.6306 26.3827 17.5962C26.2867 17.5618 26.1848 17.5474 26.0831 17.5541C25.9829 17.554 25.8837 17.5742 25.7914 17.6134C25.6992 17.6526 25.6158 17.7101 25.5463 17.7823C25.4769 17.8546 25.4227 17.9402 25.3871 18.0339C25.3515 18.1276 25.3353 18.2275 25.3393 18.3277V19.1608V20.0609C25.3391 20.1618 25.3595 20.2616 25.3992 20.3544C25.4389 20.4471 25.497 20.5309 25.5701 20.6004C25.6432 20.67 25.7296 20.724 25.8242 20.7591C25.9188 20.7943 26.0195 20.8098 26.1203 20.8047C26.3176 20.8047 26.5068 20.7264 26.6463 20.5869C26.7858 20.4474 26.8642 20.2581 26.8642 20.0609L26.8753 20.0571ZM26.0682 20.3435C25.9978 20.3389 25.9317 20.3081 25.8828 20.2572C25.8339 20.2062 25.8059 20.1389 25.8042 20.0683C25.8023 20.0535 25.8023 20.0385 25.8042 20.0237V19.1682V18.3351C25.8042 18.1268 25.8972 18.019 26.0757 17.9967C26.1486 17.9824 26.2243 17.9974 26.2862 18.0385C26.3482 18.0795 26.3915 18.1433 26.4067 18.2161C26.4213 18.2643 26.4289 18.3145 26.429 18.3649V19.9716C26.4345 20.021 26.4345 20.0709 26.429 20.1204C26.4105 20.1976 26.3621 20.2644 26.2946 20.3062C26.227 20.348 26.1457 20.3614 26.0682 20.3435ZM22.349 26.9713C22.4702 26.8952 22.6068 26.8468 22.7489 26.8295C22.891 26.8122 23.0352 26.8264 23.1712 26.8712C23.3072 26.9159 23.4317 26.9901 23.5358 27.0884C23.6399 27.1867 23.721 27.3067 23.7734 27.4399C23.8258 27.6308 23.8595 27.8264 23.8739 28.0239V28.3177H25.2723C25.3095 27.9534 25.2995 27.5859 25.2426 27.2242C25.1331 26.7573 24.8821 26.3357 24.524 26.0168C24.1658 25.6979 23.718 25.4974 23.2416 25.4427C22.6793 25.3384 22.0984 25.4507 21.6155 25.757C21.1326 26.0633 20.7834 26.541 20.6381 27.094C20.4629 27.7168 20.4412 28.3728 20.5749 29.0058C20.6305 29.3335 20.7657 29.6426 20.9687 29.9059C21.1717 30.1692 21.4362 30.3786 21.739 30.5158C21.8431 30.5678 21.951 30.6125 22.0589 30.6608L23.0147 31.0328C23.1496 31.0884 23.2813 31.1518 23.409 31.2224C23.5142 31.276 23.6052 31.3539 23.6744 31.4496C23.7436 31.5453 23.7891 31.6561 23.8069 31.7729C23.8869 32.2806 23.8869 32.7976 23.8069 33.3052C23.7943 33.4877 23.7148 33.6592 23.5838 33.7868C23.4528 33.9144 23.2793 33.9892 23.0965 33.997C22.9451 34.0316 22.7877 34.0302 22.6369 33.9932C22.4861 33.9561 22.3461 33.8843 22.2279 33.7835C22.1098 33.6827 22.0169 33.5557 21.9565 33.4126C21.8962 33.2695 21.8701 33.114 21.8803 32.9591V32.5871H20.467V33.1487C20.4732 33.6098 20.6185 34.0582 20.884 34.4352C21.1495 34.8122 21.5227 35.1001 21.9547 35.2613C22.5733 35.4864 23.2515 35.4864 23.8701 35.2613C24.3073 35.1149 24.6744 34.8114 24.9004 34.4096C25.049 34.1483 25.1533 33.8643 25.2091 33.569C25.3268 32.8955 25.3368 32.2075 25.2388 31.5308C25.2044 31.1552 25.0606 30.7982 24.8253 30.5034C24.5899 30.2086 24.2734 29.9889 23.9148 29.872L23.8553 29.8463L22.7395 29.4074C22.613 29.3554 22.4866 29.2959 22.3676 29.2326C22.2512 29.1752 22.1519 29.0884 22.0795 28.9807C22.007 28.8731 21.964 28.7484 21.9547 28.6189C21.9287 28.2984 21.9287 27.9762 21.9547 27.6556C21.9628 27.5184 22.003 27.3849 22.0722 27.2661C22.1413 27.1472 22.2374 27.0462 22.3527 26.9713H22.349ZM20.5637 19.7113H22.1667V23.7206H23.4424V14.6828L22.1556 14.6826V18.5432H20.5674C20.5674 17.2489 20.5451 15.9732 20.5339 14.6937H19.2768V23.7279H20.5711L20.5637 19.7113ZM16.9374 25.5315C16.8184 25.8328 14.7579 35.2203 14.7728 35.3839H16.1452C16.2865 34.6735 16.4241 33.9743 16.5617 33.2676L18.4883 33.268C18.6346 33.9698 18.7772 34.6673 18.9161 35.3616H20.3331L18.1015 25.5319L16.9374 25.5315ZM16.8258 31.9175C17.0415 30.7422 17.2684 29.5743 17.4916 28.4102H17.5399L18.2354 31.9137L16.8258 31.9175ZM14.2669 21.701C14.2577 21.8248 14.2577 21.9491 14.2669 22.0729C14.304 22.5695 14.5368 23.0307 14.9141 23.3558C15.2404 23.6252 15.6384 23.7935 16.059 23.8395C16.4797 23.8855 16.9046 23.8074 17.2814 23.6149C17.6582 23.4223 17.9704 23.1237 18.1796 22.7559C18.3888 22.388 18.4858 21.967 18.4586 21.5448V21.1728C18.016 21.1914 17.6031 21.1728 17.1829 21.1914V21.5634C17.1762 21.7381 17.15 21.9115 17.1048 22.0803C17.0427 22.2367 16.9295 22.3675 16.7836 22.4512C16.6377 22.535 16.4677 22.5665 16.3014 22.5412C16.1419 22.5443 15.9863 22.4913 15.8619 22.3914C15.7375 22.2914 15.6521 22.151 15.6208 21.9945C15.5868 21.8519 15.5693 21.7059 15.5687 21.5593V19.3612V17.271C15.5674 17.0299 15.581 16.7889 15.6096 16.5495C15.6167 16.4319 15.6549 16.3186 15.7202 16.2206C15.7856 16.1226 15.8757 16.0433 15.9815 15.9916C16.0756 15.945 16.178 15.9177 16.2828 15.9112C16.3875 15.9048 16.4925 15.9193 16.5916 15.9539C16.6907 15.9886 16.7818 16.0426 16.8597 16.113C16.9376 16.1833 17.0007 16.2685 17.0453 16.3635C17.1315 16.5508 17.1711 16.7563 17.1606 16.9623V17.271H18.4474V16.6834C18.4504 16.4108 18.3988 16.1404 18.2957 15.8881C18.1926 15.6359 18.04 15.4068 17.8469 15.2144C17.6538 15.022 17.4242 14.8702 17.1715 14.768C16.9189 14.6658 16.6483 14.6152 16.3758 14.6191C15.9726 14.5921 15.5708 14.6896 15.2249 14.8985C14.8789 15.1074 14.6055 15.4176 14.4418 15.787C14.3034 16.0887 14.2372 16.4185 14.2484 16.7503V18.4017C14.2583 19.4976 14.2645 20.5976 14.2669 21.701ZM14.2669 30.4301V28.7602V27.6816C14.2621 27.2488 14.1316 26.8268 13.8912 26.4669C13.6509 26.107 13.311 25.8248 12.9131 25.6546C12.5231 25.478 12.0923 25.4112 11.6672 25.4612C11.1953 25.4971 10.7463 25.6789 10.3824 25.9815C10.0185 26.284 9.75777 26.6923 9.63639 27.1497C9.57868 27.3936 9.5475 27.643 9.5434 27.8936V29.4111V32.1373V33.2828C9.5847 33.8358 9.81893 34.3566 10.2052 34.7544C10.5915 35.1523 11.1052 35.4017 11.6567 35.4593C12.2082 35.5169 12.7624 35.3789 13.2225 35.0695C13.6826 34.7601 14.0193 34.2988 14.174 33.7663C14.2397 33.5112 14.2722 33.2487 14.2707 32.9853V30.4115L14.2669 30.4301ZM12.8536 33.1043C12.8603 33.2613 12.8274 33.4174 12.758 33.5583C12.6885 33.6992 12.5848 33.8204 12.4563 33.9107C12.3278 34.0011 12.1787 34.0577 12.0226 34.0754C11.8665 34.093 11.7085 34.0712 11.563 34.0118C11.3796 33.9524 11.2208 33.8342 11.1113 33.6756C11.0017 33.5169 10.9474 33.3266 10.9568 33.1341V31.8583V30.4748V27.968C10.9535 27.8206 10.9672 27.6733 10.9977 27.5291C11.0596 27.3305 11.1848 27.1577 11.3541 27.0369C11.5235 26.9162 11.7278 26.8543 11.9357 26.8606C12.1436 26.867 12.3437 26.9412 12.5054 27.072C12.6672 27.2028 12.7816 27.3829 12.8313 27.5849C12.8555 27.7224 12.8667 27.8618 12.8648 28.0014V32.9704L12.8536 33.1043ZM13.7128 22.4713H11.1465V19.8231C11.8903 19.7934 12.6342 19.8231 13.378 19.7785V18.5883H11.1465C11.1034 17.6998 11.1096 16.8095 11.1651 15.9216H12.411H13.6905V15.2968C13.7164 15.0994 13.7189 14.8987 13.6979 14.7008C12.9764 14.6524 10.0939 14.7008 9.89675 14.7454V23.7647H13.7314L13.7128 22.4713ZM4.99845 15.9476H6.48615V23.7581H7.77675V15.9476H9.26445V14.724L4.98355 14.7231C4.96805 15.131 4.97305 15.5403 4.99845 15.9476ZM4.48891 25.6178C4.45173 26.049 4.46171 26.483 4.51867 26.9121H6.09187V27.1353C6.09187 28.9875 6.10055 30.8471 6.11791 32.7142V35.221V35.433H7.51261L7.51258 26.8853H9.12298V25.5835C8.818 25.5314 4.63388 25.55 4.48888 25.6021L4.48891 25.6178ZM37.8179 30.4119V21.6976C37.8179 21.0021 37.7881 20.3066 37.736 19.6111C37.6799 18.8719 37.5235 18.1437 37.2711 17.4465C37.0688 16.8912 36.799 16.3628 36.4678 15.8732C36.6165 15.6092 36.7653 15.3637 36.8955 15.1108C37.5932 13.8346 37.89 12.3777 37.7472 10.9303C37.6077 9.46166 36.9591 8.08816 35.9136 7.04736C34.6788 5.79396 33.4254 4.55916 32.1943 3.32806C31.4429 2.57989 30.5327 2.01046 29.5313 1.66186C28.722 1.39752 27.8819 1.23876 27.0319 1.18951C25.6595 1.07049 24.2834 0.958907 22.9073 0.862207C21.241 0.746907 19.5599 0.717157 17.8937 0.709717C16.0972 0.709717 14.3008 0.750628 12.5044 0.839887C11.7605 0.87708 10.9832 0.921712 10.2208 0.977497C9.22776 1.05188 8.23101 1.13371 7.24541 1.23041C6.68267 1.27069 6.12261 1.34271 5.56801 1.44613C1.90451 2.18998 -0.118787 5.49643 0.316413 8.95913C0.446423 9.97293 0.792692 10.9471 1.33181 11.8155L1.56612 12.2135L1.45083 12.4069C1.10594 12.9531 0.836933 13.5437 0.651183 14.1624C0.367773 15.1129 0.232293 16.1014 0.249503 17.0932C0.249503 18.0602 0.282977 19.0272 0.282977 19.9979C0.282977 21.2216 0.282976 22.4452 0.260661 23.6689V31.0628C0.260661 32.2418 0.309013 33.4208 0.357363 34.5999C0.376161 35.099 0.430851 35.5962 0.521013 36.0876C0.740213 37.3834 1.36077 38.5777 2.29511 39.5019C3.48901 40.6697 4.66061 41.8636 5.84701 43.0426C6.00572 43.2057 6.17467 43.3585 6.35283 43.5001C7.38843 44.3048 8.66793 44.7313 9.97913 44.7089H13.1703L26.7493 44.6717C28.4304 44.6717 30.0966 44.6494 31.7889 44.6345C32.2588 44.6381 32.7273 44.5831 33.1836 44.4708C34.1585 44.248 35.0587 43.7757 35.7961 43.1002C36.5335 42.4247 37.0828 41.5693 37.3902 40.6177C37.6951 39.7278 37.8399 38.7909 37.8179 37.8505L37.8179 30.4119ZM32.2389 34.0792C32.2545 34.8063 32.1515 35.5312 31.934 36.2252C31.7718 36.7567 31.501 37.2488 31.1386 37.6701C30.7762 38.0914 30.3302 38.4327 29.8288 38.6725C29.3168 38.9138 28.7584 39.0407 28.1924 39.0444C26.417 39.0642 24.6417 39.0791 22.8663 39.089L18.4664 39.1076H9.26861H6.27461C5.84772 39.1084 5.42299 39.047 5.01381 38.9254C4.45215 38.7596 3.93811 38.4622 3.51441 38.0579C3.09071 37.6536 2.76957 37.1541 2.57763 36.6008C2.36512 36.0522 2.23963 35.4737 2.2057 34.8862C2.10528 33.2237 2.08668 31.5612 2.08668 29.8987V24.5727C2.08668 23.0849 2.109 21.5972 2.109 20.1095C2.109 19.083 2.07925 18.0565 2.07181 17.0299C2.05949 16.2517 2.16227 15.4759 2.37679 14.7277C2.61446 13.9219 3.03587 13.1822 3.60789 12.5668L3.78642 12.3734L3.80873 12.3176C3.76782 12.2507 3.72691 12.1763 3.67856 12.1019C3.35498 11.57 3.00165 11.0568 2.71154 10.5063C2.30156 9.77613 2.07883 8.95576 2.06325 8.11856C2.04767 7.28136 2.23974 6.45326 2.62228 5.70836C2.93845 5.0553 3.40808 4.48856 3.99098 4.05656C4.57391 3.62454 5.25278 3.34013 5.96958 3.22764C6.4409 3.14364 6.91642 3.08529 7.39408 3.05284C8.19001 2.97473 8.98598 2.90779 9.78188 2.84456C10.4861 2.79249 11.189 2.74538 11.8907 2.70322C13.8582 2.59536 15.8332 2.53958 17.8044 2.54329C19.5896 2.54329 21.3712 2.58421 23.149 2.71066C24.6367 2.8148 26.1244 2.94622 27.6121 3.10491C28.7965 3.20933 29.9095 3.71595 30.7661 4.54051C31.5567 5.29001 32.0484 6.30111 32.1497 7.38581C32.2607 8.55491 31.992 9.72871 31.3835 10.7332C31.1083 11.2167 30.8107 11.6891 30.5243 12.1651L30.4314 12.3213C30.4641 12.3615 30.4989 12.4 30.5355 12.4366C31.3035 13.1651 31.8238 14.1159 32.0232 15.1554C32.1675 15.9192 32.2361 16.6953 32.2278 17.4725V19.8678V29.8578V34.0792L32.2389 34.0792ZM25.6554 26.8297H27.2547V27.0677V31.5978L27.2551 35.1168L27.2547 35.3431H28.6606L28.661 32.4985L28.6606 29.6638C28.6208 28.7154 28.6332 27.7655 28.6978 26.8185H30.2822V25.5019H25.6294L25.6554 26.8297ZM27.727 18.9708H27.768L28.4263 20.7486H28.8577C28.8577 19.6738 28.8581 18.6181 28.8395 17.5655H28.4006V19.3657H28.3523L27.701 17.5575H27.2807V20.7338H27.7233L27.727 18.9708ZM26.8757 20.0537L26.8753 18.2979C26.8755 18.196 26.8548 18.0952 26.8145 18.0016C26.7741 17.9081 26.7149 17.8238 26.6407 17.7541C26.5664 17.6843 26.4786 17.6306 26.3827 17.5962C26.2867 17.5618 26.1848 17.5474 26.0831 17.5541C25.9829 17.554 25.8837 17.5742 25.7914 17.6134C25.6992 17.6526 25.6158 17.7101 25.5463 17.7823C25.4769 17.8546 25.4227 17.9402 25.3871 18.0339C25.3515 18.1276 25.3353 18.2275 25.3393 18.3277V19.1608V20.0609C25.3391 20.1618 25.3595 20.2616 25.3992 20.3544C25.4389 20.4471 25.497 20.5309 25.5701 20.6004C25.6432 20.67 25.7296 20.724 25.8242 20.7591C25.9188 20.7943 26.0195 20.8098 26.1203 20.8047C26.3176 20.8047 26.5068 20.7264 26.6463 20.5869C26.7858 20.4474 26.8642 20.2581 26.8642 20.0609L26.8757 20.0537ZM26.0682 20.3435C25.9978 20.3389 25.9317 20.3081 25.8828 20.2572C25.8339 20.2062 25.8059 20.1389 25.8042 20.0683C25.8023 20.0535 25.8023 20.0385 25.8042 20.0237V19.1682V18.3351C25.8042 18.1268 25.8972 18.019 26.0757 17.9967C26.1486 17.9824 26.2243 17.9974 26.2862 18.0385C26.3482 18.0795 26.3915 18.1433 26.4067 18.2161C26.4213 18.2643 26.4289 18.3145 26.429 18.3649V19.9716C26.4345 20.021 26.4345 20.0709 26.429 20.1204C26.4105 20.1976 26.3621 20.2644 26.2946 20.3062C26.227 20.348 26.1457 20.3614 26.0682 20.3435ZM22.349 26.9713C22.4702 26.8952 22.6068 26.8468 22.7489 26.8295C22.891 26.8122 23.0352 26.8264 23.1712 26.8712C23.3072 26.9159 23.4317 26.9901 23.5358 27.0884C23.6399 27.1867 23.721 27.3067 23.7734 27.4399C23.8258 27.6308 23.8595 27.8264 23.8739 28.0239V28.3177H25.2723C25.3095 27.9534 25.2995 27.5859 25.2426 27.2242C25.1331 26.7573 24.8821 26.3357 24.524 26.0168C24.1658 25.6979 23.718 25.4974 23.2416 25.4427C22.6793 25.3384 22.0984 25.4507 21.6155 25.757C21.1326 26.0633 20.7834 26.541 20.6381 27.094C20.4629 27.7168 20.4412 28.3728 20.5749 29.0058C20.6305 29.3335 20.7657 29.6426 20.9687 29.9059C21.1717 30.1692 21.4362 30.3786 21.739 30.5158C21.8431 30.5678 21.951 30.6125 22.0589 30.6608L23.0147 31.0328C23.1496 31.0884 23.2813 31.1518 23.409 31.2224C23.5142 31.276 23.6052 31.3539 23.6744 31.4496C23.7436 31.5453 23.7891 31.6561 23.8069 31.7729C23.8869 32.2806 23.8869 32.7976 23.8069 33.3052C23.7943 33.4877 23.7148 33.6592 23.5838 33.7868C23.4528 33.9144 23.2793 33.9892 23.0965 33.997C22.9451 34.0316 22.7877 34.0302 22.6369 33.9932C22.4861 33.9561 22.3461 33.8843 22.2279 33.7835C22.1098 33.6827 22.0169 33.5557 21.9565 33.4126C21.8962 33.2695 21.8701 33.114 21.8803 32.9591V32.5871H20.467V33.1487C20.4737 33.6097 20.6196 34.0584 20.885 34.4353C21.1505 34.8122 21.523 35.0997 21.9547 35.2613C22.5733 35.4864 23.2515 35.4864 23.8701 35.2613C24.3073 35.1149 24.6744 34.8114 24.9004 34.4096C25.049 34.1483 25.1533 33.8643 25.2091 33.569C25.3268 32.8955 25.3368 32.2075 25.2388 31.5308C25.2044 31.1552 25.0606 30.7982 24.8253 30.5034C24.5899 30.2086 24.2734 29.9889 23.9148 29.872L23.8553 29.8463L22.7395 29.4074C22.613 29.3554 22.4866 29.2959 22.3676 29.2326C22.2512 29.1752 22.1519 29.0884 22.0795 28.9807C22.007 28.8731 21.964 28.7484 21.9547 28.6189C21.9287 28.2984 21.9287 27.9762 21.9547 27.6556C21.9628 27.5184 22.003 27.3849 22.0722 27.2661C22.1413 27.1472 22.2374 27.0462 22.3527 26.9713H22.349ZM20.5637 19.7113H22.1667V23.7206H23.4424V14.6828L22.1556 14.6826V18.5432H20.5674C20.5674 17.2489 20.5451 15.9732 20.5339 14.6937H19.2768V23.7279H20.5711L20.5637 19.7113ZM16.9374 25.5315C16.8184 25.8328 14.7579 35.2203 14.7728 35.3839H16.1452C16.2865 34.6735 16.4241 33.9743 16.5617 33.2676L18.4883 33.268C18.6346 33.9698 18.7772 34.6673 18.9161 35.3616H20.3331L18.1015 25.5319L16.9374 25.5315ZM16.8258 31.9175C17.0415 30.7422 17.2684 29.5743 17.4916 28.4102H17.5399L18.2354 31.9137L16.8258 31.9175ZM14.2669 21.701C14.2577 21.8248 14.2577 21.9491 14.2669 22.0729C14.304 22.5695 14.5368 23.0307 14.9141 23.3558C15.2404 23.6252 15.6384 23.7935 16.059 23.8395C16.4797 23.8855 16.9046 23.8074 17.2814 23.6149C17.6582 23.4223 17.9704 23.1237 18.1796 22.7559C18.3888 22.388 18.4858 21.967 18.4586 21.5448V21.1728C18.016 21.1914 17.6031 21.1728 17.1829 21.1914V21.5634C17.1762 21.7381 17.15 21.9115 17.1048 22.0803C17.0427 22.2367 16.9295 22.3675 16.7836 22.4512C16.6377 22.535 16.4677 22.5665 16.3014 22.5412C16.1419 22.5443 15.9863 22.4913 15.8619 22.3914C15.7375 22.2914 15.6521 22.151 15.6208 21.9945C15.5868 21.8519 15.5693 21.7059 15.5687 21.5593V19.3612V17.271C15.5674 17.0299 15.581 16.7889 15.6096 16.5495C15.6167 16.4319 15.6549 16.3186 15.7202 16.2206C15.7856 16.1226 15.8757 16.0433 15.9815 15.9916C16.0756 15.945 16.178 15.9177 16.2828 15.9112C16.3875 15.9048 16.4925 15.9193 16.5916 15.9539C16.6907 15.9886 16.7818 16.0426 16.8597 16.113C16.9376 16.1833 17.0007 16.2685 17.0453 16.3635C17.1315 16.5508 17.1711 16.7563 17.1606 16.9623V17.271H18.4474V16.6834C18.4504 16.4108 18.3988 16.1404 18.2957 15.8881C18.1926 15.6359 18.04 15.4068 17.8469 15.2144C17.6538 15.022 17.4242 14.8702 17.1715 14.768C16.9189 14.6658 16.6483 14.6152 16.3758 14.6191C15.9726 14.5921 15.5708 14.6896 15.2249 14.8985C14.8789 15.1074 14.6055 15.4176 14.4418 15.787C14.3034 16.0887 14.2372 16.4185 14.2484 16.7503V18.4017C14.2583 19.4976 14.2645 20.5976 14.2669 21.701ZM14.2669 30.4301V28.7602V27.6816C14.2621 27.2488 14.1316 26.8268 13.8912 26.4669C13.6509 26.107 13.311 25.8248 12.9131 25.6546C12.5231 25.478 12.0923 25.4112 11.6672 25.4612C11.1953 25.4971 10.7463 25.6789 10.3824 25.9815C10.0185 26.284 9.75777 26.6923 9.63639 27.1497C9.57868 27.3936 9.5475 27.643 9.5434 27.8936V29.4111V32.1373V33.2828C9.5847 33.8358 9.81893 34.3566 10.2052 34.7544C10.5915 35.1523 11.1052 35.4017 11.6567 35.4593C12.2082 35.5169 12.7624 35.3789 13.2225 35.0695C13.6826 34.7601 14.0193 34.2988 14.174 33.7663C14.2397 33.5112 14.2722 33.2487 14.2707 32.9853V30.4115L14.2669 30.4301ZM12.8536 33.1043C12.8603 33.2613 12.8274 33.4174 12.758 33.5583C12.6885 33.6992 12.5848 33.8204 12.4563 33.9107C12.3278 34.0011 12.1787 34.0577 12.0226 34.0754C11.8665 34.093 11.7085 34.0712 11.563 34.0118C11.3796 33.9524 11.2208 33.8342 11.1113 33.6756C11.0017 33.5169 10.9474 33.3266 10.9568 33.1341V31.8583V30.4748V27.968C10.9535 27.8206 10.9672 27.6733 10.9977 27.5291C11.0596 27.3305 11.1848 27.1577 11.3541 27.0369C11.5235 26.9162 11.7278 26.8543 11.9357 26.8606C12.1436 26.867 12.3437 26.9412 12.5054 27.072C12.6672 27.2028 12.7816 27.3829 12.8313 27.5849C12.8555 27.7224 12.8667 27.8618 12.8648 28.0014V32.9704L12.8536 33.1043ZM13.7128 22.4713H11.1465V19.8231C11.8903 19.7934 12.6342 19.8231 13.378 19.7785V18.5883H11.1465C11.1034 17.6998 11.1096 16.8095 11.1651 15.9216H12.411H13.6905V15.2968C13.7164 15.0994 13.7193 14.8999 13.6983 14.702C12.9768 14.6536 10.0943 14.702 9.89721 14.7466V23.7659H13.7318L13.7128 22.4713ZM4.99845 15.9476H6.48615V23.7581H7.77675V15.9476H9.26445V14.724L4.98401 14.7243C4.96851 15.1322 4.97305 15.5403 4.99845 15.9476ZM4.48891 25.6178C4.45173 26.049 4.46171 26.483 4.51867 26.9121H6.09187V27.1353C6.09187 28.9875 6.10055 30.8471 6.11791 32.7142V35.221V35.433H7.51261L7.51307 26.8864H9.12347V25.5846C8.81849 25.5325 4.63427 25.5511 4.48927 25.6032L4.48891 25.6178ZM4.48891 25.6178C4.45173 26.049 4.46171 26.483 4.51867 26.9121H6.09187V27.1353C6.09187 28.9875 6.10055 30.8471 6.11791 32.7142V35.221V35.433H7.51261L7.51307 26.8864H9.12347V25.5846C8.81849 25.5325 4.63427 25.5511 4.48927 25.6032L4.48891 25.6178ZM4.98404 14.7391C4.96173 15.1466 4.96173 15.5551 4.98404 15.9627H6.47174V23.7732H7.76234V15.9627H9.25004V14.7242L4.98404 14.7391ZM11.1655 22.4715V19.8233C11.9093 19.7936 12.6532 19.8233 13.397 19.7787V18.5885H11.1655C11.1224 17.7 11.1286 16.8097 11.1841 15.9218H12.43H13.7095V15.297C13.7292 15.0989 13.7255 14.8992 13.6983 14.702C12.9768 14.6536 10.0943 14.702 9.89721 14.7466V23.7659H13.7318L13.7318 22.4715H11.1655ZM14.3045 30.4307V28.7608V27.6822C14.2994 27.249 14.1683 26.8267 13.9273 26.4667C13.6862 26.1068 13.3456 25.8248 12.947 25.6552C12.557 25.4786 12.1262 25.4118 11.701 25.4618C11.2293 25.4982 10.7806 25.6802 10.4168 25.9827C10.0531 26.2852 9.79223 26.6932 9.67035 27.1503C9.61212 27.394 9.58217 27.6436 9.58109 27.8942V29.4117V32.1379V33.2834C9.62238 33.8364 9.85661 34.3572 10.2429 34.755C10.6291 35.1529 11.1428 35.4023 11.6944 35.4599C12.2459 35.5175 12.8 35.3795 13.2601 35.0701C13.7202 34.7607 14.057 34.2994 14.2117 33.7669C14.2774 33.5118 14.3099 33.2493 14.3084 32.9859V30.4121L14.3045 30.4307ZM12.8726 33.1049C12.8793 33.2619 12.8464 33.418 12.777 33.5589C12.7075 33.6998 12.6038 33.821 12.4753 33.9113C12.3468 34.0017 12.1977 34.0583 12.0416 34.076C11.8855 34.0936 11.7275 34.0718 11.582 34.0124C11.3986 33.953 11.2398 33.8348 11.1303 33.6762C11.0207 33.5175 10.9664 33.3272 10.9758 33.1347V31.8589V30.4754V27.9686C10.9731 27.8214 10.9855 27.6743 11.013 27.5297C11.0637 27.3236 11.1864 27.1425 11.3589 27.0191C11.5315 26.8956 11.7426 26.8379 11.9539 26.8565C12.1647 26.8549 12.3689 26.9292 12.5294 27.0658C12.6899 27.2024 12.7958 27.3921 12.828 27.6004C12.8503 27.7381 12.8615 27.8774 12.8615 28.0169V32.9859V33.1198L12.8726 33.1049ZM18.4515 21.1699C18.0089 21.1885 17.5961 21.1699 17.1758 21.1699V21.5418C17.1689 21.7165 17.1427 21.8899 17.0977 22.0588C17.0399 22.218 16.9295 22.3526 16.7848 22.4405C16.6401 22.5285 16.4697 22.5644 16.3018 22.5423C16.1423 22.5454 15.9867 22.4924 15.8623 22.3925C15.7379 22.2925 15.6525 22.1521 15.6212 21.9956C15.5872 21.853 15.5697 21.707 15.5691 21.5604V19.3623V17.2721C15.5678 17.031 15.5814 16.79 15.61 16.5506C15.6163 16.4328 15.6548 16.3188 15.7202 16.2206C15.7857 16.1225 15.8756 16.0438 15.9819 15.9927C16.076 15.9461 16.1784 15.9188 16.2832 15.9123C16.3879 15.9059 16.4929 15.9204 16.592 15.955C16.6911 15.9897 16.7822 16.0437 16.8601 16.1141C16.938 16.1844 17.0011 16.2696 17.0457 16.3646C17.1319 16.5519 17.1715 16.7574 17.161 16.9634V17.2721H18.4478V16.6845C18.4508 16.4119 18.3992 16.1415 18.2961 15.8892C18.193 15.637 18.0404 15.4079 17.8473 15.2155C17.6542 15.0231 17.4246 14.8713 17.1719 14.7691C16.9193 14.6669 16.6487 14.6163 16.3762 14.6202C15.973 14.5932 15.5712 14.6907 15.2253 14.8996C14.8793 15.1085 14.6059 15.4187 14.4422 15.7881C14.3038 16.0898 14.2376 16.4196 14.2488 16.7514V18.4028V21.7018C14.2488 21.8261 14.2562 21.9503 14.2711 22.0737C14.3084 22.5694 14.5396 23.0304 14.9145 23.3569C15.2412 23.6257 15.6393 23.7933 16.06 23.8391C16.4806 23.8848 16.9055 23.8067 17.2824 23.6143C17.6592 23.4219 17.9717 23.1237 18.1814 22.7562C18.3911 22.3886 18.4888 21.9679 18.4627 21.5456C18.4776 21.4265 18.4664 21.3038 18.4627 21.1699H18.4515ZM18.0796 25.5326H16.9378C16.8188 25.8339 14.7583 35.2214 14.7732 35.385H16.1456C16.2869 34.6746 16.4245 33.9754 16.5621 33.2687H18.4925C18.6338 33.9705 18.7751 34.6684 18.9165 35.3627H20.3335L18.0796 25.5326ZM16.7965 31.9187C17.0122 30.7434 17.2391 29.5755 17.4622 28.4114H17.5106L18.2061 31.9149L16.7965 31.9187ZM22.156 14.6837V18.5443H20.5678C20.5678 17.2537 20.5455 15.9743 20.5343 14.6948H19.2772V23.729H20.5715V19.7122H22.1746V23.7215H23.4503V14.6837H22.156ZM23.904 29.8917L23.8445 29.8657L22.7287 29.4268C22.5985 29.3748 22.4758 29.3153 22.3568 29.252C22.2404 29.1946 22.1411 29.1078 22.0687 29.0001C21.9963 28.8925 21.9533 28.7678 21.944 28.6383C21.9198 28.3177 21.9198 27.9957 21.944 27.675C21.9508 27.5345 21.9907 27.3976 22.0605 27.2754C22.1303 27.1532 22.228 27.0493 22.3456 26.9721C22.4672 26.8961 22.604 26.8479 22.7463 26.8308C22.8886 26.8138 23.0329 26.8283 23.1689 26.8734C23.305 26.9185 23.4294 26.9931 23.5333 27.0918C23.6372 27.1905 23.7181 27.3109 23.7701 27.4445C23.8225 27.6341 23.8561 27.8284 23.8705 28.0247V28.3185H25.269C25.3062 27.9542 25.2962 27.5867 25.2392 27.225C25.1298 26.7581 24.8788 26.3365 24.5207 26.0176C24.1625 25.6987 23.7147 25.4982 23.2383 25.4435C22.676 25.3392 22.0951 25.4515 21.6122 25.7578C21.1293 26.0641 20.7801 26.5418 20.6348 27.0948C20.4596 27.7189 20.4379 28.376 20.5715 29.0103C20.6305 29.334 20.7673 29.6386 20.9701 29.8977C21.1729 30.1569 21.4356 30.3629 21.7357 30.498C21.8398 30.5501 21.9477 30.5984 22.0555 30.643L23.0114 31.015C23.1463 31.0706 23.2779 31.134 23.4056 31.2046C23.5114 31.2586 23.6027 31.337 23.6719 31.4334C23.7411 31.5298 23.7863 31.6414 23.8036 31.7588C23.8835 32.2652 23.8835 32.781 23.8036 33.2874C23.791 33.4699 23.7115 33.6414 23.5805 33.769C23.4494 33.8966 23.276 33.9714 23.0932 33.9792C22.9437 34.0126 22.7885 34.011 22.6396 33.9746C22.4908 33.9382 22.3524 33.868 22.2351 33.7694C22.1178 33.6708 22.0248 33.5465 21.9634 33.4062C21.9019 33.2658 21.8736 33.1132 21.8807 32.9602V32.5882H20.4674V33.1498C20.4736 33.6109 20.6189 34.0593 20.8844 34.4363C21.1499 34.8133 21.5231 35.1012 21.9551 35.2624C22.5735 35.4891 23.2522 35.4891 23.8705 35.2624C24.3094 35.1192 24.6776 34.8148 24.9008 34.4107C25.0494 34.1494 25.1537 33.8654 25.2095 33.5701C25.3272 32.8966 25.3372 32.2086 25.2392 31.5319C25.2038 31.1566 25.0597 30.7998 24.8245 30.5051C24.5893 30.2105 24.2733 29.9909 23.9152 29.8731L23.904 29.8917ZM26.8794 18.2987C26.8797 18.1968 26.8589 18.096 26.8186 18.0024C26.7782 17.9089 26.719 17.8246 26.6448 17.7549C26.5705 17.6851 26.4827 17.6314 26.3868 17.597C26.2909 17.5626 26.1889 17.5482 26.0872 17.5549C25.987 17.5548 25.8878 17.575 25.7955 17.6142C25.7033 17.6534 25.6199 17.7109 25.5504 17.7831C25.481 17.8554 25.4268 17.941 25.3912 18.0347C25.3556 18.1284 25.3394 18.2283 25.3434 18.3285V19.1616V20.0617C25.3433 20.1626 25.3637 20.2624 25.4033 20.3552C25.443 20.4479 25.5012 20.5317 25.5742 20.6012C25.6473 20.6708 25.7337 20.7248 25.8283 20.7599C25.9229 20.7951 26.0237 20.8106 26.1244 20.8055C26.3217 20.8055 26.5109 20.7272 26.6504 20.5877C26.7899 20.4482 26.8683 20.2589 26.8683 20.0617C26.8869 19.4703 26.8869 18.8864 26.8757 18.3024L26.8794 18.2987ZM26.4257 19.9724C26.4311 20.0218 26.4311 20.0717 26.4257 20.1212C26.4072 20.1931 26.3628 20.2556 26.301 20.2968C26.2393 20.338 26.1644 20.3549 26.091 20.3443C26.0205 20.3397 25.9544 20.3089 25.9055 20.258C25.8566 20.207 25.8286 20.1397 25.8269 20.0691C25.8251 20.0543 25.8251 20.0393 25.8269 20.0245V19.169V18.3359C25.8269 18.1276 25.9199 18.0198 26.0984 17.9975C26.1713 17.9832 26.247 17.9982 26.3089 18.0393C26.3709 18.0803 26.4142 18.1441 26.4294 18.2169C26.4441 18.2651 26.4516 18.3153 26.4517 18.3657L26.4257 19.9724ZM28.8432 17.5586H28.4006V19.3587H28.3523C28.1366 18.7562 27.9196 18.1562 27.7014 17.5586H27.2848V20.7349H27.7274V18.9719H27.7684L28.4304 20.7497H28.8581V17.566L28.8432 17.5586ZM25.6558 25.5141V26.8308H27.2551V27.0688V31.5989V35.1211V35.3442H28.661V32.5027V29.6649C28.6212 28.7165 28.6336 27.7666 28.6982 26.8196H30.2826V25.503H25.6298L25.6558 25.5141ZM25.6558 25.5141V26.8308H27.2551V27.0688V31.5989V35.1211V35.3442H28.661V32.5027V29.6649C28.6212 28.7165 28.6336 27.7666 28.6982 26.8196H30.2826V25.503H25.6298L25.6558 25.5141ZM28.8432 17.5586H28.4006V19.3587H28.3523L27.7014 17.5586H27.2811V20.7349H27.7237V18.9719H27.7684L28.4267 20.7497H28.8581C28.8507 19.6674 28.8618 18.6111 28.8432 17.5586ZM26.8757 18.3024C26.8759 18.2006 26.8552 18.0997 26.8149 18.0062C26.7745 17.9126 26.7153 17.8283 26.6411 17.7586C26.5668 17.6889 26.479 17.6351 26.3831 17.6007C26.2871 17.5663 26.1852 17.552 26.0835 17.5586C25.9833 17.5585 25.8841 17.5787 25.7918 17.6179C25.6996 17.6571 25.6162 17.7146 25.5467 17.7869C25.4773 17.8591 25.4231 17.9447 25.3875 18.0384C25.3519 18.1321 25.3357 18.232 25.3397 18.3322V19.1653V20.0654C25.3395 20.1663 25.3599 20.2661 25.3996 20.3589C25.4393 20.4517 25.4974 20.5354 25.5705 20.605C25.6436 20.6746 25.73 20.7285 25.8246 20.7637C25.9192 20.7988 26.0199 20.8143 26.1207 20.8092C26.318 20.8092 26.5072 20.7309 26.6467 20.5914C26.7862 20.4519 26.8646 20.2627 26.8646 20.0654C26.8869 19.4703 26.8869 18.8864 26.8757 18.3024ZM26.422 19.9761C26.4274 20.0256 26.4274 20.0755 26.422 20.1249C26.4035 20.1968 26.3591 20.2593 26.2973 20.3005C26.2355 20.3417 26.1607 20.3586 26.0872 20.348C26.0168 20.3434 25.9507 20.3126 25.9018 20.2617C25.8529 20.2108 25.8249 20.1434 25.8232 20.0728C25.8213 20.058 25.8213 20.043 25.8232 20.0282V19.1728V18.3396C25.8232 18.1314 25.9162 18.0235 26.0947 18.0012C26.1676 17.9869 26.2433 18.0019 26.3052 18.043C26.3672 18.084 26.4105 18.1479 26.4257 18.2206C26.4403 18.2689 26.4479 18.319 26.448 18.3694L26.422 19.9761ZM23.904 29.8955L23.8445 29.8694L22.7287 29.4305C22.5985 29.3785 22.4758 29.319 22.3568 29.2557C22.2404 29.1983 22.1411 29.1115 22.0687 29.0038C21.9963 28.8962 21.9533 28.7715 21.944 28.6421C21.9198 28.3214 21.9198 27.9994 21.944 27.6788C21.9508 27.5382 21.9907 27.4013 22.0605 27.2791C22.1303 27.157 22.228 27.053 22.3456 26.9758C22.4672 26.8998 22.604 26.8516 22.7463 26.8346C22.8886 26.8175 23.0329 26.832 23.1689 26.8772C23.305 26.9223 23.4294 26.9968 23.5333 27.0955C23.6372 27.1942 23.7181 27.3146 23.7701 27.4482C23.8225 27.6378 23.8561 27.8322 23.8705 28.0284V28.3222H25.269C25.3062 27.958 25.2962 27.5904 25.2392 27.2287C25.1298 26.7619 24.8788 26.3402 24.5207 26.0213C24.1625 25.7025 23.7147 25.5019 23.2383 25.4472C22.676 25.343 22.0951 25.4553 21.6122 25.7616C21.1293 26.0679 20.7801 26.5455 20.6348 27.0986C20.4596 27.7226 20.4379 28.3797 20.5715 29.014C20.6305 29.3377 20.7673 29.6423 20.9701 29.9014C21.1729 30.1606 21.4356 30.3666 21.7357 30.5017C21.8398 30.5538 21.9477 30.6021 22.0555 30.6468L23.0114 31.0187C23.1463 31.0744 23.2779 31.1377 23.4056 31.2084C23.5114 31.2623 23.6027 31.3407 23.6719 31.4371C23.7411 31.5335 23.7863 31.6451 23.8036 31.7625C23.8836 32.2702 23.8836 32.7872 23.8036 33.2949C23.7901 33.4767 23.7103 33.6472 23.5793 33.7741C23.4484 33.9009 23.2754 33.9753 23.0932 33.983C22.9434 34.0164 22.7878 34.0147 22.6387 33.9781C22.4896 33.9415 22.3509 33.871 22.2335 33.772C22.1162 33.673 22.0233 33.5482 21.9621 33.4074C21.9009 33.2666 21.873 33.1135 21.8807 32.9602V32.5882H20.4674V33.1498C20.4736 33.6109 20.6189 34.0593 20.8844 34.4363C21.1499 34.8133 21.5231 35.1012 21.9551 35.2624C22.5735 35.4891 23.2522 35.4891 23.8705 35.2624C24.3094 35.1192 24.6776 34.8148 24.9008 34.4107C25.0494 34.1494 25.1537 33.8654 25.2095 33.5701C25.3272 32.8966 25.3372 32.2086 25.2392 31.5319C25.2038 31.1566 25.0597 30.7998 24.8245 30.5051C24.5893 30.2105 24.2733 29.9909 23.9152 29.8731L23.904 29.8955ZM22.156 14.6875V18.5443H20.5678C20.5678 17.2537 20.5455 15.9743 20.5343 14.6948H19.2772V23.729H20.5715V19.7122H22.1746V23.7215H23.4503V14.6837L22.156 14.6875ZM18.1094 25.5325L16.9378 25.5326C16.8188 25.8339 14.7583 35.2214 14.7732 35.385H16.1456C16.2869 34.6746 16.4245 33.9754 16.5621 33.2687H18.4925C18.6338 33.9705 18.7751 34.6684 18.9165 35.3627H20.3335L18.1094 25.5325ZM16.8262 31.9186C17.0419 30.7433 17.2688 29.5754 17.492 28.4113H17.5403L18.2358 31.9148L16.8262 31.9186ZM18.4627 21.1699C18.0201 21.1885 17.6073 21.1696 17.187 21.1696V21.5415C17.18 21.7162 17.1539 21.8896 17.1089 22.0585C17.0507 22.2198 16.9386 22.356 16.7915 22.4441C16.6444 22.5322 16.4714 22.5671 16.3018 22.5423C16.1423 22.5454 15.9867 22.4924 15.8623 22.3925C15.7379 22.2925 15.6525 22.1521 15.6212 21.9956C15.5872 21.853 15.5697 21.707 15.5691 21.5604V19.3623V17.2721C15.5678 17.031 15.5814 16.79 15.61 16.5506C15.6163 16.4328 15.6548 16.3188 15.7202 16.2206C15.7857 16.1225 15.8756 16.0438 15.9819 15.9927C16.076 15.9461 16.1784 15.9188 16.2832 15.9123C16.3879 15.9059 16.4929 15.9204 16.592 15.955C16.6911 15.9897 16.7822 16.0437 16.8601 16.1141C16.938 16.1844 17.0011 16.2696 17.0457 16.3646C17.1319 16.5519 17.1715 16.7574 17.161 16.9634V17.2721H18.4478V16.6845C18.4508 16.4119 18.3992 16.1415 18.2961 15.8892C18.193 15.637 18.0404 15.4079 17.8473 15.2155C17.6542 15.0231 17.4246 14.8713 17.1719 14.7691C16.9193 14.6669 16.6487 14.6163 16.3762 14.6202C15.973 14.5932 15.5712 14.6907 15.2253 14.8996C14.8793 15.1085 14.6059 15.4187 14.4422 15.7881C14.3038 16.0898 14.2376 16.4196 14.2488 16.7514V18.4028V21.7018C14.2488 21.8261 14.2562 21.9503 14.2711 22.0737C14.3084 22.5694 14.5396 23.0304 14.9145 23.3569C15.2412 23.6257 15.6393 23.7933 16.06 23.8391C16.4806 23.8848 16.9055 23.8067 17.2824 23.6143C17.6592 23.4219 17.9717 23.1237 18.1814 22.7562C18.3911 22.3886 18.4888 21.9679 18.4627 21.5456V21.1733V21.1699ZM14.3083 30.4306H14.2859V28.7607V27.6821C14.2808 27.2489 14.1497 26.8266 13.9087 26.4666C13.6676 26.1067 13.327 25.8247 12.9284 25.6551C12.5385 25.4782 12.1076 25.4113 11.6824 25.4617C11.2111 25.4978 10.7626 25.6797 10.3994 25.9823C10.0362 26.2849 9.77614 26.6931 9.65547 27.1502C9.59602 27.3938 9.56482 27.6434 9.56249 27.8941V29.4116V32.1378C9.56249 32.5097 9.56249 32.9041 9.58109 33.2834C9.59517 33.733 9.74476 34.1676 10.0102 34.5307C10.2757 34.8937 10.6447 35.1681 11.0688 35.3178C11.3756 35.4325 11.7026 35.483 12.0297 35.4663C12.3568 35.4496 12.677 35.366 12.9705 35.2206C13.264 35.0753 13.5246 34.8713 13.7361 34.6212C13.9477 34.3712 14.1057 34.0804 14.2004 33.7668C14.2661 33.5117 14.2987 33.2492 14.2971 32.9858C14.3157 32.1452 14.3083 31.2898 14.3083 30.4306ZM12.8726 33.1049C12.8793 33.2619 12.8464 33.418 12.777 33.5589C12.7075 33.6998 12.6038 33.821 12.4753 33.9113C12.3468 34.0017 12.1977 34.0583 12.0416 34.076C11.8855 34.0936 11.7275 34.0718 11.582 34.0124C11.3986 33.953 11.2398 33.8348 11.1303 33.6762C11.0207 33.5175 10.9664 33.3272 10.9758 33.1347V31.8589V30.4754V27.9686C10.9724 27.8212 10.9862 27.6738 11.0167 27.5296C11.0786 27.331 11.2038 27.1582 11.3731 27.0374C11.5425 26.9167 11.7468 26.8548 11.9547 26.8611C12.1626 26.8675 12.3627 26.9417 12.5244 27.0725C12.6862 27.2033 12.8006 27.3834 12.8503 27.5854C12.8745 27.7229 12.8857 27.8623 12.8838 28.0019V32.9709L12.8726 33.1049ZM11.1655 22.4715V19.8233C11.9093 19.7936 12.6532 19.8233 13.397 19.7787V18.5885H11.1655C11.1224 17.7 11.1286 16.8097 11.1841 15.9218H12.43H13.7095V15.297C13.7292 15.0989 13.7255 14.8992 13.6983 14.702C12.9768 14.6536 10.0943 14.702 9.89721 14.7466V23.7659H13.7318L13.7318 22.4715H11.1655ZM4.98401 14.7243C4.9617 15.1319 4.96173 15.5406 4.98404 15.9481H6.47174V23.7586H7.76234V15.9481H9.25004V14.7242L4.98401 14.7243ZM4.48927 25.6032C4.45209 26.0344 4.46217 26.4687 4.51913 26.8978H6.09233V27.121C6.09233 28.9732 6.10101 30.8328 6.11837 32.6999V35.2067V35.4187H7.51307V26.8864H9.12347V25.5846C8.81849 25.5325 4.63427 25.5511 4.48927 25.6032ZM4.48927 25.6032C4.45209 26.0344 4.46217 26.4687 4.51913 26.8978H6.09233V27.121C6.09233 28.9732 6.10101 30.8328 6.11837 32.6999V35.2067V35.4187H7.51307V26.8864H9.12347V25.5846C8.81849 25.5325 4.63427 25.5511 4.48927 25.6032ZM4.98401 14.7243C4.9617 15.1319 4.96173 15.5406 4.98404 15.9481H6.47174V23.7586H7.76234V15.9481H9.25004V14.7242L4.98401 14.7243ZM11.1655 22.4715V19.8233C11.9093 19.7936 12.6532 19.8233 13.397 19.7787V18.5885H11.1655C11.1224 17.7 11.1286 16.8097 11.1841 15.9218H12.43H13.7095V15.297C13.7292 15.0989 13.7255 14.8992 13.6983 14.702C12.9768 14.6536 10.0943 14.702 9.89721 14.7466V23.7659H13.7318L13.7318 22.4715H11.1655ZM14.3045 30.4307V28.7608V27.6822C14.2994 27.249 14.1683 26.8267 13.9273 26.4667C13.6862 26.1068 13.3456 25.8248 12.947 25.6552C12.557 25.4786 12.1262 25.4118 11.701 25.4618C11.2293 25.4982 10.7806 25.6802 10.4168 25.9827C10.0531 26.2852 9.79223 26.6932 9.67035 27.1503C9.61212 27.394 9.58217 27.6436 9.58109 27.8942V29.4117V32.1379V33.2834C9.62238 33.8364 9.85661 34.3572 10.2429 34.755C10.6291 35.1529 11.1428 35.4023 11.6944 35.4599C12.2459 35.5175 12.8 35.3795 13.2601 35.0701C13.7202 34.7607 14.057 34.2994 14.2117 33.7669C14.2774 33.5118 14.3099 33.2493 14.3084 32.9859V30.4121L14.3045 30.4307ZM12.8726 33.1049C12.8793 33.2619 12.8464 33.418 12.777 33.5589C12.7075 33.6998 12.6038 33.821 12.4753 33.9113C12.3468 34.0017 12.1977 34.0583 12.0416 34.076C11.8855 34.0936 11.7275 34.0718 11.582 34.0124C11.3986 33.953 11.2398 33.8348 11.1303 33.6762C11.0207 33.5175 10.9664 33.3272 10.9758 33.1347V31.8589V30.4754V27.9686C10.9731 27.8214 10.9855 27.6743 11.013 27.5297C11.0637 27.3236 11.1864 27.1425 11.3589 27.0191C11.5315 26.8956 11.7426 26.8379 11.9539 26.8565C12.1647 26.8549 12.3689 26.9292 12.5294 27.0658C12.6899 27.2024 12.7958 27.3921 12.828 27.6004C12.8503 27.7381 12.8615 27.8774 12.8615 28.0169V32.9859V33.1198L12.8726 33.1049ZM18.4515 21.1699C18.0089 21.1885 17.5961 21.1699 17.1758 21.1699V21.5418C17.1689 21.7165 17.1427 21.8899 17.0977 22.0588C17.0399 22.218 16.9295 22.3526 16.7848 22.4405C16.6401 22.5285 16.4697 22.5644 16.3018 22.5423C16.1423 22.5454 15.9867 22.4924 15.8623 22.3925C15.7379 22.2925 15.6525 22.1521 15.6212 21.9956C15.5872 21.853 15.5697 21.707 15.5691 21.5604V19.3623V17.2721C15.5678 17.031 15.5814 16.79 15.61 16.5506C15.6163 16.4328 15.6548 16.3188 15.7202 16.2206C15.7857 16.1225 15.8756 16.0438 15.9819 15.9927C16.076 15.9461 16.1784 15.9188 16.2832 15.9123C16.3879 15.9059 16.4929 15.9204 16.592 15.955C16.6911 15.9897 16.7822 16.0437 16.8601 16.1141C16.938 16.1844 17.0011 16.2696 17.0457 16.3646C17.1319 16.5519 17.1715 16.7574 17.161 16.9634V17.2721H18.4478V16.6845C18.4508 16.4119 18.3992 16.1415 18.2961 15.8892C18.193 15.637 18.0404 15.4079 17.8473 15.2155C17.6542 15.0231 17.4246 14.8713 17.1719 14.7691C16.9193 14.6669 16.6487 14.6163 16.3762 14.6202C15.973 14.5932 15.5712 14.6907 15.2253 14.8996C14.8793 15.1085 14.6059 15.4187 14.4422 15.7881C14.3038 16.0898 14.2376 16.4196 14.2488 16.7514V18.4028V21.7018C14.2488 21.8261 14.2562 21.9503 14.2711 22.0737C14.3084 22.5694 14.5396 23.0304 14.9145 23.3569C15.2412 23.6257 15.6393 23.7933 16.06 23.8391C16.4806 23.8848 16.9055 23.8067 17.2824 23.6143C17.6592 23.4219 17.9717 23.1237 18.1814 22.7562C18.3911 22.3886 18.4888 21.9679 18.4627 21.5456C18.4776 21.4265 18.4664 21.3038 18.4627 21.1699H18.4515ZM18.0796 25.5326H16.9378C16.8188 25.8339 14.7583 35.2214 14.7732 35.385H16.1456C16.2869 34.6746 16.4245 33.9754 16.5621 33.2687H18.4925C18.6338 33.9705 18.7751 34.6684 18.9165 35.3627H20.3335L18.0796 25.5326ZM16.7965 31.9187C17.0122 30.7434 17.2391 29.5755 17.4622 28.4114H17.5106L18.2061 31.9149L16.7965 31.9187ZM22.156 14.6837V18.5443H20.5678C20.5678 17.2537 20.5455 15.9743 20.5343 14.6948H19.2772V23.729H20.5715V19.7122H22.1746V23.7215H23.4503V14.6837H22.156ZM23.904 29.8917L23.8445 29.8657L22.7287 29.4268C22.5985 29.3748 22.4758 29.3153 22.3568 29.252C22.2404 29.1946 22.1411 29.1078 22.0687 29.0001C21.9963 28.8925 21.9533 28.7678 21.944 28.6383C21.9198 28.3177 21.9198 27.9957 21.944 27.675C21.9508 27.5345 21.9907 27.3976 22.0605 27.2754C22.1303 27.1532 22.228 27.0493 22.3456 26.9721C22.4672 26.8961 22.604 26.8479 22.7463 26.8308C22.8886 26.8138 23.0329 26.8283 23.1689 26.8734C23.305 26.9185 23.4294 26.9931 23.5333 27.0918C23.6372 27.1905 23.7181 27.3109 23.7701 27.4445C23.8225 27.6341 23.8561 27.8284 23.8705 28.0247V28.3185H25.269C25.3062 27.9542 25.2962 27.5867 25.2392 27.225C25.1298 26.7581 24.8788 26.3365 24.5207 26.0176C24.1625 25.6987 23.7147 25.4982 23.2383 25.4435C22.676 25.3392 22.0951 25.4515 21.6122 25.7578C21.1293 26.0641 20.7801 26.5418 20.6348 27.0948C20.4596 27.7189 20.4379 28.376 20.5715 29.0103C20.6305 29.334 20.7673 29.6386 20.9701 29.8977C21.1729 30.1569 21.4356 30.3629 21.7357 30.498C21.8398 30.5501 21.9477 30.5984 22.0555 30.643L23.0114 31.015C23.1463 31.0706 23.2779 31.134 23.4056 31.2046C23.5114 31.2586 23.6027 31.337 23.6719 31.4334C23.7411 31.5298 23.7863 31.6414 23.8036 31.7588C23.8835 32.2652 23.8835 32.781 23.8036 33.2874C23.791 33.4699 23.7115 33.6414 23.5805 33.769C23.4494 33.8966 23.276 33.9714 23.0932 33.9792C22.9437 34.0126 22.7885 34.011 22.6396 33.9746C22.4908 33.9382 22.3524 33.868 22.2351 33.7694C22.1178 33.6708 22.0248 33.5465 21.9634 33.4062C21.9019 33.2658 21.8736 33.1132 21.8807 32.9602V32.5882H20.4674V33.1498C20.4736 33.6109 20.6189 34.0593 20.8844 34.4363C21.1499 34.8133 21.5231 35.1012 21.9551 35.2624C22.5735 35.4891 23.2522 35.4891 23.8705 35.2624C24.3094 35.1192 24.6776 34.8148 24.9008 34.4107C25.0494 34.1494 25.1537 33.8654 25.2095 33.5701C25.3272 32.8966 25.3372 32.2086 25.2392 31.5319C25.2038 31.1566 25.0597 30.7998 24.8245 30.5051C24.5893 30.2105 24.2733 29.9909 23.9152 29.8731L23.904 29.8917ZM26.8794 18.2987C26.8797 18.1968 26.8589 18.096 26.8186 18.0024C26.7782 17.9089 26.719 17.8246 26.6448 17.7549C26.5705 17.6851 26.4827 17.6314 26.3868 17.597C26.2909 17.5626 26.1889 17.5482 26.0872 17.5549C25.987 17.5548 25.8878 17.575 25.7955 17.6142C25.7033 17.6534 25.6199 17.7109 25.5504 17.7831C25.481 17.8554 25.4268 17.941 25.3912 18.0347C25.3556 18.1284 25.3394 18.2283 25.3434 18.3285V19.1616V20.0617C25.3433 20.1626 25.3637 20.2624 25.4033 20.3552C25.443 20.4479 25.5012 20.5317 25.5742 20.6012C25.6473 20.6708 25.7337 20.7248 25.8283 20.7599C25.9229 20.7951 26.0237 20.8106 26.1244 20.8055C26.3217 20.8055 26.5109 20.7272 26.6504 20.5877C26.7899 20.4482 26.8683 20.2589 26.8683 20.0617C26.8869 19.4703 26.8869 18.8864 26.8757 18.3024L26.8794 18.2987ZM26.4257 19.9724C26.4311 20.0218 26.4311 20.0717 26.4257 20.1212C26.4072 20.1931 26.3628 20.2556 26.301 20.2968C26.2393 20.338 26.1644 20.3549 26.091 20.3443C26.0205 20.3397 25.9544 20.3089 25.9055 20.258C25.8566 20.207 25.8286 20.1397 25.8269 20.0691C25.8251 20.0543 25.8251 20.0393 25.8269 20.0245V19.169V18.3359C25.8269 18.1276 25.9199 18.0198 26.0984 17.9975C26.1713 17.9832 26.247 17.9982 26.3089 18.0393C26.3709 18.0803 26.4142 18.1441 26.4294 18.2169C26.4441 18.2651 26.4516 18.3153 26.4517 18.3657L26.4257 19.9724ZM28.8432 17.5586H28.4006V19.3587H28.3523C28.1366 18.7562 27.9196 18.1562 27.7014 17.5586H27.2848V20.7349H27.7274V18.9719H27.7684L28.4304 20.7497H28.8581V17.566L28.8432 17.5586ZM25.6558 25.5141V26.8308H27.2551V27.0688V31.5989V35.1211V35.3442H28.661V32.5027V29.6649C28.6212 28.7165 28.6336 27.7666 28.6982 26.8196H30.2826V25.503H25.6298L25.6558 25.5141ZM14.3083 30.4306H14.2859V28.7607V27.6821C14.2808 27.2489 14.1497 26.8266 13.9087 26.4666C13.6676 26.1067 13.327 25.8247 12.9284 25.6551C12.5385 25.4782 12.1076 25.4113 11.6824 25.4617C11.2111 25.4978 10.7626 25.6797 10.3994 25.9823C10.0362 26.2849 9.77614 26.6931 9.65547 27.1502C9.59602 27.3938 9.56482 27.6434 9.56249 27.8941V29.4116V32.1378C9.56249 32.5097 9.56249 32.9041 9.58109 33.2834C9.59517 33.733 9.74476 34.1676 10.0102 34.5307C10.2757 34.8937 10.6447 35.1681 11.0688 35.3178C11.3756 35.4325 11.7026 35.483 12.0297 35.4663C12.3568 35.4496 12.677 35.366 12.9705 35.2206C13.264 35.0753 13.5246 34.8713 13.7361 34.6212C13.9477 34.3712 14.1057 34.0804 14.2004 33.7668C14.2661 33.5117 14.2987 33.2492 14.2971 32.9858C14.3157 32.1452 14.3083 31.2898 14.3083 30.4306ZM12.8726 33.1049C12.8793 33.2619 12.8464 33.418 12.777 33.5589C12.7075 33.6998 12.6038 33.821 12.4753 33.9113C12.3468 34.0017 12.1977 34.0583 12.0416 34.076C11.8855 34.0936 11.7275 34.0718 11.582 34.0124C11.3986 33.953 11.2398 33.8348 11.1303 33.6762C11.0207 33.5175 10.9664 33.3272 10.9758 33.1347V31.8589V30.4754V27.9686C10.9724 27.8212 10.9862 27.6738 11.0167 27.5296C11.0786 27.331 11.2038 27.1582 11.3731 27.0374C11.5425 26.9167 11.7468 26.8548 11.9547 26.8611C12.1626 26.8675 12.3627 26.9417 12.5244 27.0725C12.6862 27.2033 12.8006 27.3834 12.8503 27.5854C12.8745 27.7229 12.8857 27.8623 12.8838 28.0019V32.9709L12.8726 33.1049ZM23.904 29.8917L23.8445 29.8657L22.7287 29.4268C22.5985 29.3748 22.4758 29.3153 22.3568 29.252C22.2404 29.1946 22.1411 29.1078 22.0687 29.0001C21.9963 28.8925 21.9533 28.7678 21.944 28.6383C21.9198 28.3177 21.9198 27.9957 21.944 27.675C21.9508 27.5345 21.9907 27.3976 22.0605 27.2754C22.1303 27.1532 22.228 27.0493 22.3456 26.9721C22.4672 26.8961 22.604 26.8479 22.7463 26.8308C22.8886 26.8138 23.0329 26.8283 23.1689 26.8734C23.305 26.9185 23.4294 26.9931 23.5333 27.0918C23.6372 27.1905 23.7181 27.3109 23.7701 27.4445C23.8225 27.6341 23.8561 27.8284 23.8705 28.0247V28.3185H25.269C25.3062 27.9542 25.2962 27.5867 25.2392 27.225C25.1298 26.7581 24.8788 26.3365 24.5207 26.0176C24.1625 25.6987 23.7147 25.4982 23.2383 25.4435C22.676 25.3392 22.0951 25.4515 21.6122 25.7578C21.1293 26.0641 20.7801 26.5418 20.6348 27.0948C20.4596 27.7189 20.4379 28.376 20.5715 29.0103C20.6305 29.334 20.7673 29.6386 20.9701 29.8977C21.1729 30.1569 21.4356 30.3629 21.7357 30.498C21.8398 30.5501 21.9477 30.5984 22.0555 30.643L23.0114 31.015C23.1463 31.0706 23.2779 31.134 23.4056 31.2046C23.5109 31.2582 23.601 31.3364 23.6702 31.4321C23.7394 31.5278 23.7848 31.6386 23.8027 31.7554C23.8827 32.2631 23.8836 32.7798 23.8036 33.2874C23.791 33.4699 23.7115 33.6414 23.5805 33.769C23.4494 33.8966 23.276 33.9714 23.0932 33.9792C22.9437 34.0126 22.7885 34.011 22.6396 33.9746C22.4908 33.9382 22.3524 33.868 22.2351 33.7694C22.1178 33.6708 22.0235 33.5477 21.9621 33.4074C21.9009 33.2666 21.873 33.1135 21.8807 32.9602V32.5882H20.4674V33.1498C20.4736 33.6109 20.6189 34.0593 20.8844 34.4363C21.1499 34.8133 21.5231 35.1012 21.9551 35.2624C22.5737 35.4875 23.2519 35.4875 23.8705 35.2624C24.3087 35.1179 24.6765 34.8139 24.9008 34.4107C25.0494 34.1494 25.1537 33.8654 25.2095 33.5701C25.3272 32.8966 25.3372 32.2086 25.2392 31.5319C25.2038 31.1566 25.0597 30.7998 24.8245 30.5051C24.5893 30.2105 24.2733 29.9909 23.9152 29.8731L23.904 29.8917ZM18.1085 25.533L16.9378 25.5326C16.8188 25.8339 14.7583 35.2214 14.7732 35.385H16.1456C16.2869 34.6746 16.4245 33.9754 16.5621 33.2687H18.4925C18.6338 33.9705 18.7751 34.6684 18.9165 35.3627H20.3335L18.1085 25.533ZM16.8253 31.9191C17.041 30.7438 17.2679 29.5759 17.4911 28.4118H17.5394L18.2349 31.9153L16.8253 31.9191ZM22.156 14.6837V18.5443H20.5678C20.5678 17.2537 20.5455 15.9743 20.5343 14.6948H19.2772V23.729H20.5715V19.7122H22.1746V23.7215H23.4503V14.6837H22.156ZM11.1655 22.4715V19.8233C11.9093 19.7936 12.6532 19.8233 13.397 19.7787V18.5885H11.1655C11.1224 17.7 11.1286 16.8097 11.1841 15.9218H12.43H13.7095V15.297C13.7292 15.0989 13.7255 14.8992 13.6983 14.702C12.9768 14.6536 10.0943 14.702 9.89721 14.7466V23.7659H13.7318L13.7318 22.4715H11.1655ZM18.4586 21.1705C18.0197 21.1891 17.6073 21.1696 17.187 21.1696V21.5415C17.1788 21.7164 17.151 21.8906 17.1048 22.0594C17.0467 22.22 16.9351 22.3557 16.7889 22.4437C16.6426 22.5317 16.4709 22.5662 16.3018 22.5423C16.1421 22.5462 15.9857 22.494 15.8612 22.3939C15.7366 22.2939 15.6518 22.1524 15.6212 21.9956C15.5872 21.853 15.5697 21.707 15.5691 21.5604V19.3623V17.2721C15.5659 17.0309 15.5796 16.7898 15.61 16.5506C15.6163 16.4328 15.6538 16.3195 15.7192 16.2213C15.7847 16.1232 15.8756 16.0438 15.9819 15.9927C16.076 15.9461 16.1784 15.9188 16.2832 15.9123C16.3879 15.9059 16.4929 15.9204 16.592 15.955C16.6911 15.9897 16.7822 16.0437 16.8601 16.1141C16.938 16.1844 17.0011 16.2696 17.0457 16.3646C17.1319 16.5519 17.1715 16.7574 17.161 16.9634V17.2721H18.4478V16.6845C18.4508 16.4116 18.399 16.1406 18.2957 15.8881C18.1923 15.6355 18.0391 15.4072 17.8456 15.2147C17.6521 15.0223 17.422 14.8706 17.169 14.7686C16.9159 14.6666 16.6449 14.6164 16.3721 14.6208C15.9694 14.594 15.5682 14.6917 15.2229 14.9006C14.8776 15.1095 14.6053 15.419 14.4422 15.7881C14.3038 16.0898 14.2376 16.4196 14.2488 16.7514V18.4028V21.7018C14.2488 21.8261 14.2562 21.9503 14.2711 22.0737C14.3084 22.5694 14.5396 23.0304 14.9145 23.3569C15.2412 23.6257 15.6393 23.7933 16.06 23.8391C16.4806 23.8848 16.9055 23.8067 17.2824 23.6143C17.6592 23.4219 17.9717 23.1237 18.1814 22.7562C18.3911 22.3886 18.4888 21.9679 18.4627 21.5456V21.1733L18.4586 21.1705ZM4.48927 25.6032C4.45209 26.0344 4.46217 26.4687 4.51913 26.8978H6.09233V27.121C6.09233 28.9732 6.10101 30.8328 6.11837 32.6999V35.2067V35.4187H7.51307L7.51234 26.8871H9.12274V25.5853C8.81776 25.5332 4.63354 25.5518 4.48854 25.6039L4.48927 25.6032ZM25.6546 25.5146V26.8313H27.2539V27.0693V31.5994V35.1178V35.3447H28.6598V32.4995V29.6654C28.62 28.717 28.6324 27.7671 28.697 26.8201H30.2814V25.5035C28.7342 25.5072 27.1907 25.5035 25.6546 25.5146ZM4.98264 14.7286C4.96033 15.1362 4.96033 15.5447 4.98264 15.9523H6.47034V23.7628H7.76094V15.9523H9.24864V14.7249L4.98264 14.7286ZM28.8416 17.559H28.399V19.3591H28.3507L27.6998 17.559H27.2795V20.7353H27.7221V18.9723H27.7668L28.4251 20.7501H28.8565C28.8491 19.6678 28.8602 18.6115 28.8416 17.559ZM26.8741 18.3028C26.8743 18.201 26.8536 18.1001 26.8133 18.0066C26.7729 17.913 26.7137 17.8287 26.6395 17.759C26.5652 17.6893 26.4774 17.6355 26.3815 17.6011C26.2855 17.5667 26.1836 17.5524 26.0819 17.559C25.9817 17.5589 25.8825 17.5791 25.7902 17.6183C25.698 17.6575 25.6146 17.715 25.5451 17.7873C25.4757 17.8595 25.4215 17.9451 25.3859 18.0388C25.3503 18.1325 25.3341 18.2324 25.3381 18.3326V19.1657V20.0658C25.3379 20.1667 25.3583 20.2665 25.398 20.3593C25.4377 20.4521 25.4958 20.5358 25.5689 20.6054C25.642 20.675 25.7284 20.7289 25.823 20.7641C25.9176 20.7992 26.0183 20.8147 26.1191 20.8096C26.3164 20.8096 26.5056 20.7313 26.6451 20.5918C26.7846 20.4523 26.863 20.2631 26.863 20.0658C26.8853 19.4707 26.8853 18.8868 26.8741 18.3028ZM26.4204 19.9765C26.4258 20.026 26.4258 20.0759 26.4204 20.1253C26.4019 20.1972 26.3575 20.2597 26.2957 20.3009C26.2339 20.3421 26.1591 20.359 26.0856 20.3484C26.0152 20.3438 25.9491 20.313 25.9002 20.2621C25.8513 20.2112 25.8233 20.1438 25.8216 20.0732C25.8197 20.0584 25.8197 20.0434 25.8216 20.0286V19.1732V18.34C25.8216 18.1318 25.9146 18.0239 26.0931 18.0016C26.166 17.9873 26.2417 18.0023 26.3036 18.0434C26.3656 18.0844 26.4089 18.1483 26.4241 18.221C26.4387 18.2693 26.4463 18.3194 26.4464 18.3698L26.4204 19.9765Z" fill="black"/>
</svg>